<?xml version="1.0" encoding="UTF-8"?>
<svg id="Layer_1" data-name="Layer 1" xmlns="http://www.w3.org/2000/svg" viewBox="0 0 5612.91 4215.37">
  <defs>
    <style>
      .cls-1 {
        letter-spacing: -.04em;
      }

      .cls-2, .cls-3 {
        fill: #fff;
      }

      .cls-4 {
        letter-spacing: -.07em;
      }

      .cls-3, .cls-5, .cls-6 {
        stroke: #fff;
        stroke-miterlimit: 10;
      }

      .cls-3, .cls-6 {
        stroke-width: .25px;
      }

      .cls-7 {
        letter-spacing: -.03em;
      }

      .cls-8 {
        letter-spacing: -.05em;
      }

      .cls-9 {
        fill: #d4aa7d;
      }

      .cls-5 {
        stroke-width: 3px;
      }

      .cls-5, .cls-6 {
        fill: none;
      }

      .cls-10 {
        letter-spacing: -.03em;
      }

      .cls-11 {
        letter-spacing: -.05em;
      }

      .cls-12 {
        font-family: Poppins-SemiBold, Poppins;
        font-size: 120px;
        font-weight: 600;
      }

      .cls-13 {
        fill: #221e44;
      }
    </style>
  </defs>
  <rect class="cls-2" x="2194.91" y="3394.37" width="952" height="392"/>
  <text class="cls-12" transform="translate(1486.36 1732.37)"><tspan class="cls-4" x="0" y="0">A</tspan><tspan class="cls-11" x="78.09" y="0">s</tspan><tspan class="cls-1" x="138" y="0">pe</tspan><tspan class="cls-8" x="284.37" y="0">c</tspan><tspan class="cls-10" x="350.98" y="0">t </tspan><tspan class="cls-7" x="420.1" y="0">U</tspan><tspan class="cls-10" x="499.83" y="0">I</tspan></text>
  <g>
    <path d="m968.33,2053.19h-28.83l-4.77,13.8h-15.25l26.03-72.5h16.91l26.03,72.5h-15.35l-4.77-13.8Zm-3.94-11.62l-10.48-30.29-10.48,30.29h20.95Z"/>
    <path d="m1000.77,2065.38c-3.73-1.69-6.69-3.99-8.87-6.9-2.18-2.91-3.37-6.12-3.58-9.65h14.62c.28,2.21,1.36,4.04,3.27,5.5,1.9,1.45,4.27,2.18,7.1,2.18s4.93-.55,6.48-1.66c1.56-1.1,2.33-2.52,2.33-4.25,0-1.87-.95-3.27-2.85-4.2-1.9-.93-4.93-1.95-9.08-3.06-4.29-1.04-7.8-2.11-10.53-3.21-2.73-1.11-5.08-2.8-7.05-5.08-1.97-2.28-2.96-5.36-2.96-9.23,0-3.18.92-6.08,2.75-8.71,1.83-2.63,4.46-4.7,7.88-6.22s7.45-2.28,12.08-2.28c6.85,0,12.31,1.71,16.39,5.13,4.08,3.42,6.33,8.04,6.74,13.85h-13.9c-.21-2.28-1.16-4.1-2.85-5.44-1.69-1.35-3.96-2.02-6.79-2.02-2.63,0-4.65.48-6.07,1.45-1.42.97-2.13,2.32-2.13,4.04,0,1.94.97,3.41,2.9,4.41,1.93,1,4.94,2.02,9.02,3.06,4.15,1.04,7.57,2.11,10.27,3.21,2.7,1.11,5.03,2.82,7,5.13,1.97,2.32,2.99,5.38,3.06,9.18,0,3.32-.92,6.29-2.75,8.92-1.83,2.63-4.46,4.69-7.88,6.17-3.42,1.49-7.42,2.23-11.98,2.23s-8.92-.85-12.65-2.54Z"/>
    <path d="m1065.46,2011.24c3.28-1.76,7.03-2.65,11.25-2.65,4.91,0,9.35,1.21,13.33,3.63,3.98,2.42,7.12,5.86,9.44,10.32s3.48,9.63,3.48,15.51-1.16,11.08-3.48,15.61c-2.32,4.53-5.46,8.04-9.44,10.53-3.98,2.49-8.42,3.73-13.33,3.73-4.22,0-7.93-.87-11.15-2.59-3.22-1.73-5.83-3.91-7.83-6.53v35.57h-14.52v-84.84h14.52v8.3c1.87-2.63,4.44-4.82,7.73-6.59Zm20.54,17.84c-1.42-2.52-3.29-4.44-5.6-5.76-2.32-1.31-4.82-1.97-7.52-1.97s-5.1.67-7.42,2.02c-2.32,1.35-4.18,3.3-5.6,5.86-1.42,2.56-2.13,5.57-2.13,9.02s.71,6.47,2.13,9.02c1.42,2.56,3.28,4.51,5.6,5.86,2.32,1.35,4.79,2.02,7.42,2.02s5.2-.69,7.52-2.07c2.32-1.38,4.18-3.35,5.6-5.91,1.42-2.56,2.13-5.6,2.13-9.13s-.71-6.45-2.13-8.97Z"/>
    <path d="m1162.63,2042.61h-42c.35,4.15,1.8,7.4,4.36,9.75,2.56,2.35,5.7,3.53,9.44,3.53,5.39,0,9.23-2.32,11.51-6.95h15.66c-1.66,5.53-4.84,10.08-9.54,13.64-4.7,3.56-10.48,5.34-17.32,5.34-5.53,0-10.49-1.23-14.88-3.68-4.39-2.45-7.81-5.93-10.27-10.42-2.46-4.49-3.68-9.68-3.68-15.56s1.21-11.17,3.63-15.66c2.42-4.49,5.81-7.95,10.16-10.37,4.36-2.42,9.37-3.63,15.04-3.63s10.35,1.18,14.68,3.53c4.32,2.35,7.67,5.69,10.06,10.01,2.39,4.32,3.58,9.28,3.58,14.88,0,2.07-.14,3.94-.42,5.6Zm-14.62-9.75c-.07-3.73-1.42-6.72-4.04-8.97-2.63-2.25-5.84-3.37-9.65-3.37-3.6,0-6.62,1.09-9.08,3.27-2.46,2.18-3.96,5.2-4.51,9.08h27.28Z"/>
    <path d="m1169.62,2022.65c2.42-4.46,5.77-7.92,10.06-10.37,4.29-2.45,9.19-3.68,14.73-3.68,7.12,0,13.02,1.78,17.68,5.34,4.67,3.56,7.79,8.56,9.39,14.99h-15.66c-.83-2.49-2.23-4.44-4.2-5.86-1.97-1.42-4.41-2.13-7.31-2.13-4.15,0-7.43,1.5-9.85,4.51-2.42,3.01-3.63,7.28-3.63,12.81s1.21,9.7,3.63,12.7c2.42,3.01,5.7,4.51,9.85,4.51,5.88,0,9.71-2.63,11.51-7.88h15.66c-1.59,6.22-4.74,11.17-9.44,14.83-4.7,3.67-10.58,5.5-17.63,5.5-5.53,0-10.44-1.23-14.73-3.68-4.29-2.45-7.64-5.91-10.06-10.37-2.42-4.46-3.63-9.66-3.63-15.61s1.21-11.15,3.63-15.61Z"/>
    <path d="m1244.2,2021.45v27.8c0,1.94.47,3.34,1.4,4.2.93.87,2.51,1.3,4.72,1.3h6.74v12.24h-9.13c-12.24,0-18.36-5.95-18.36-17.84v-27.69h-6.85v-11.93h6.85v-14.21h14.62v14.21h12.86v11.93h-12.86Z"/>
    <path d="m1301.35,1994.59v44.81c0,4.91,1.28,8.66,3.84,11.25,2.56,2.59,6.15,3.89,10.79,3.89s8.33-1.3,10.89-3.89c2.56-2.59,3.84-6.34,3.84-11.25v-44.81h14.62v44.7c0,6.15-1.33,11.36-3.99,15.61-2.66,4.25-6.22,7.45-10.68,9.59-4.46,2.14-9.42,3.22-14.88,3.22s-10.29-1.07-14.68-3.22c-4.39-2.14-7.87-5.34-10.42-9.59-2.56-4.25-3.84-9.45-3.84-15.61v-44.7h14.52Z"/>
    <path d="m1370.46,1994.59v72.39h-14.52v-72.39h14.52Z"/>
  </g>
  <text class="cls-12" transform="translate(62.42 1732.37)"><tspan x="0" y="0">Aspect UI</tspan></text>
  <path class="cls-2" d="m1512.73,1104.68c2.23-3.82,4.35-7.44,6.46-11.07,10.8-18.56,21.6-37.12,32.39-55.69,8.88-15.29,17.76-30.59,26.59-45.91.62-1.08,1.29-1.45,2.54-1.44,8.46.06,16.91.03,25.37,0,.7,0,1.11.15,1.48.81,5.58,9.94,11.2,19.86,16.81,29.78.7,1.23,1.36,2.48,2.09,3.69.41.69.38,1.24-.03,1.95-9.71,16.83-19.41,33.67-29.09,50.52-5.25,9.13-10.48,18.26-15.72,27.39-.14.25-.25.52-.47.97.66.07,1.2.16,1.75.17,3.5.02,7-.01,10.5.06,1.02.02,1.37-.63,1.77-1.3,2.88-4.82,5.76-9.65,8.62-14.48,8.84-14.93,17.68-29.87,26.52-44.8,1.21-2.04,2.41-4.08,3.63-6.12.21-.35.44-.67.76-1.16.68,1.29,1.27,2.41,1.86,3.53,3.41,6.43,6.81,12.87,10.27,19.28.44.81.41,1.39-.04,2.17-8.75,15.13-17.47,30.27-26.2,45.42-3.78,6.56-7.54,13.13-11.36,19.67-.23.39-.88.76-1.34.76-13,.03-26,0-39-.01-8.71,0-17.41.02-26.12.03-.73,0-1.46,0-2.34,0,2.56-4.4,4.99-8.56,7.4-12.72,9.04-15.59,18.05-31.19,27.11-46.77,8.29-14.24,16.61-28.46,24.97-42.67.67-1.14.68-1.87-.17-2.93-2.67-3.35-5.2-6.8-7.91-10.38-.56.93-1.05,1.72-1.51,2.53-11.16,19.89-22.31,39.77-33.46,59.66-5.29,9.44-10.58,18.87-15.92,28.28-.25.44-.92.91-1.4.91-8.58.04-17.17,0-25.75-.01-.28,0-.56-.06-1.06-.12Z"/>
  <path class="cls-2" d="m1655.23,1074.15c6,10.28,11.85,20.32,17.83,30.55h-35.76c5.98-10.18,11.86-20.2,17.94-30.55Z"/>
  <path class="cls-2" d="m1755.73,1104.68c2.23-3.82,4.35-7.44,6.46-11.07,10.8-18.56,21.6-37.12,32.39-55.69,8.88-15.29,17.76-30.59,26.59-45.91.62-1.08,1.29-1.45,2.54-1.44,8.46.06,16.91.03,25.37,0,.7,0,1.11.15,1.48.81,5.58,9.94,11.2,19.86,16.81,29.78.7,1.23,1.36,2.48,2.09,3.69.41.69.38,1.24-.03,1.95-9.71,16.83-19.41,33.67-29.09,50.52-5.25,9.13-10.48,18.26-15.72,27.39-.14.25-.25.52-.47.97.66.07,1.2.16,1.75.17,3.5.02,7-.01,10.5.06,1.02.02,1.37-.63,1.77-1.3,2.88-4.82,5.76-9.65,8.62-14.48,8.84-14.93,17.68-29.87,26.52-44.8,1.21-2.04,2.41-4.08,3.63-6.12.21-.35.44-.67.76-1.16.68,1.29,1.27,2.41,1.86,3.53,3.41,6.43,6.81,12.87,10.27,19.28.44.81.41,1.39-.04,2.17-8.75,15.13-17.47,30.27-26.2,45.42-3.78,6.56-7.54,13.13-11.36,19.67-.23.39-.88.76-1.34.76-13,.03-26,0-39-.01-8.71,0-17.41.02-26.12.03-.73,0-1.46,0-2.34,0,2.56-4.4,4.99-8.56,7.4-12.72,9.04-15.59,18.05-31.19,27.11-46.77,8.29-14.24,16.61-28.46,24.97-42.67.67-1.14.68-1.87-.17-2.93-2.67-3.35-5.2-6.8-7.91-10.38-.56.93-1.05,1.72-1.51,2.53-11.16,19.89-22.31,39.77-33.46,59.66-5.29,9.44-10.58,18.87-15.92,28.28-.25.44-.92.91-1.4.91-8.58.04-17.17,0-25.75-.01-.28,0-.56-.06-1.06-.12Z"/>
  <path class="cls-2" d="m1898.23,1074.15c6,10.28,11.85,20.32,17.83,30.55h-35.76c5.98-10.18,11.86-20.2,17.94-30.55Z"/>
  <line class="cls-6" x1="2226.51" y1="662.09" x2="1960.63" y2="927.96"/>
  <line class="cls-6" x1="2241.36" y1="676.94" x2="1975.48" y2="942.81"/>
  <line class="cls-6" x1="2256.21" y1="691.79" x2="1990.33" y2="957.66"/>
  <line class="cls-6" x1="2271.05" y1="706.64" x2="2005.18" y2="972.51"/>
  <line class="cls-6" x1="2285.9" y1="721.49" x2="2020.03" y2="987.36"/>
  <polyline class="cls-6" points="2034.88 1002.21 2049.02 988.07 2063.87 973.22 2078.72 958.37 2093.57 943.52 2099.72 937.37 2108.42 928.67 2120.72 916.37 2123.27 913.82 2138.12 898.97 2141.72 895.37 2152.97 884.13 2162.72 874.37 2167.82 869.28 2182.67 854.43 2183.72 853.37 2197.51 839.58 2204.72 832.37 2212.36 824.73 2225.72 811.37 2227.21 809.88 2242.06 795.03 2246.72 790.37 2256.91 780.18 2267.72 769.37 2271.76 765.33 2286.61 750.48 2288.72 748.37 2300.75 736.34"/>
  <polyline class="cls-6" points="2049.73 1017.06 2063.87 1002.92 2078.72 988.07 2087.42 979.37 2093.57 973.22"/>
  <line class="cls-6" x1="2276.42" y1="790.37" x2="2271.76" y2="795.03"/>
  <polyline class="cls-6" points="2286.61 780.18 2297.42 769.37 2301.46 765.33 2315.6 751.19"/>
  <polyline class="cls-6" points="2064.58 1031.91 2075.12 1021.37 2078.72 1017.77 2093.57 1002.92 2096.12 1000.37 2108.42 988.07 2117.12 979.37 2123.27 973.22"/>
  <polyline class="cls-6" points="2330.45 766.04 2327.12 769.37 2316.31 780.18 2306.12 790.37 2301.46 795.03"/>
  <line class="cls-6" x1="2243.12" y1="853.37" x2="2242.06" y2="854.43"/>
  <polyline class="cls-6" points="2079.43 1046.76 2083.82 1042.37 2093.57 1032.62 2104.82 1021.37 2108.42 1017.77 2123.27 1002.92 2125.82 1000.37 2138.12 988.07 2146.82 979.37 2152.97 973.22"/>
  <polyline class="cls-6" points="2345.3 780.89 2335.82 790.37 2331.16 795.03 2316.31 809.88 2314.82 811.37"/>
  <polyline class="cls-6" points="2094.28 1061.61 2108.42 1047.47 2113.52 1042.37 2123.27 1032.62 2134.52 1021.37 2138.12 1017.77 2152.97 1002.92 2155.52 1000.37 2167.82 988.07 2176.52 979.37 2182.67 973.22"/>
  <polyline class="cls-6" points="2360.15 795.74 2346.01 809.88 2344.52 811.37 2331.16 824.73 2323.52 832.37"/>
  <line class="cls-6" x1="2302.52" y1="853.37" x2="2301.46" y2="854.43"/>
  <polyline class="cls-6" points="2109.12 1076.46 2122.21 1063.37 2123.27 1062.32 2138.12 1047.47 2143.21 1042.37 2152.97 1032.62 2164.21 1021.37 2167.82 1017.77 2182.67 1002.92 2185.21 1000.37 2197.52 988.07 2206.21 979.37 2212.37 973.22"/>
  <polyline class="cls-6" points="2375 810.58 2374.21 811.37 2360.86 824.73 2353.21 832.37 2346.01 839.58"/>
  <line class="cls-6" x1="2332.21" y1="853.37" x2="2331.16" y2="854.43"/>
  <polyline class="cls-6" points="2123.97 1091.31 2130.91 1084.37 2138.12 1077.17 2151.91 1063.37 2152.97 1062.32 2167.82 1047.47 2172.91 1042.37 2182.67 1032.62 2193.91 1021.37 2197.52 1017.77 2212.37 1002.92 2214.91 1000.37 2227.22 988.07 2235.91 979.37 2242.06 973.22"/>
  <polyline class="cls-6" points="2389.85 825.43 2382.91 832.37 2375.71 839.58 2361.91 853.37 2360.86 854.43"/>
  <polyline class="cls-6" points="2123.97 1091.31 2130.91 1084.37 2138.12 1077.17 2151.91 1063.37 2152.97 1062.32 2167.82 1047.47 2172.91 1042.37 2182.67 1032.62 2193.91 1021.37 2197.52 1017.77 2212.37 1002.92 2214.91 1000.37 2227.22 988.07 2235.91 979.37 2242.06 973.22"/>
  <polyline class="cls-6" points="2389.85 825.43 2382.91 832.37 2375.71 839.58 2361.91 853.37 2360.86 854.43"/>
  <polyline class="cls-6" points="2138.82 1106.16 2139.61 1105.37 2152.97 1092.02 2160.61 1084.37 2167.82 1077.17 2181.61 1063.37 2182.67 1062.32 2197.52 1047.47 2202.61 1042.37 2212.37 1032.62 2223.61 1021.37 2227.22 1017.77 2242.07 1002.92 2244.61 1000.37 2256.91 988.07 2265.61 979.37 2271.76 973.22"/>
  <polyline class="cls-6" points="2404.7 840.28 2391.61 853.37 2390.56 854.43 2375.71 869.28 2370.61 874.37"/>
  <polyline class="cls-6" points="2360.86 884.13 2349.61 895.37 2346.01 898.98 2331.16 913.83"/>
  <polyline class="cls-6" points="2153.67 1121 2167.81 1106.86 2169.3 1105.37 2182.66 1092.01 2190.3 1084.37 2197.51 1077.16 2211.3 1063.37 2212.36 1062.31 2227.21 1047.46 2232.3 1042.37 2242.06 1032.61 2253.3 1021.37 2256.91 1017.76 2271.76 1002.92 2274.3 1000.37 2286.61 988.07 2295.3 979.37 2301.46 973.22"/>
  <polyline class="cls-6" points="2419.54 855.13 2405.4 869.27 2400.3 874.37 2390.55 884.12"/>
  <polyline class="cls-6" points="2346 928.67 2358.3 916.37 2360.85 913.82 2375.7 898.97 2379.3 895.37"/>
  <polyline class="cls-6" points="2168.52 1135.85 2178 1126.37 2182.66 1121.71 2197.51 1106.86 2199 1105.37 2212.36 1092.01 2220 1084.37 2227.21 1077.16 2241 1063.37 2242.06 1062.31 2256.91 1047.46 2262 1042.37 2271.76 1032.61 2283 1021.37 2286.61 1017.77 2301.46 1002.92 2304 1000.37 2316.31 988.07 2325 979.37 2331.15 973.22"/>
  <polyline class="cls-6" points="2434.39 869.98 2430 874.37 2420.25 884.12 2409 895.37 2405.4 898.97"/>
  <polyline class="cls-6" points="2360.85 943.52 2367 937.37 2375.7 928.67 2388 916.37 2390.55 913.82"/>
  <polyline class="cls-6" points="2183.37 1150.7 2186.7 1147.37 2197.51 1136.56 2207.7 1126.37 2212.36 1121.71 2227.21 1106.86 2228.7 1105.37 2242.06 1092.01 2249.7 1084.37 2256.91 1077.16 2270.7 1063.37 2271.76 1062.31 2286.61 1047.46 2291.7 1042.37 2301.46 1032.62 2312.7 1021.37 2316.31 1017.77 2331.16 1002.92 2333.7 1000.37 2346 988.07 2354.7 979.37 2360.85 973.22"/>
  <polyline class="cls-6" points="2449.24 884.83 2438.7 895.37 2435.1 898.97 2420.25 913.82 2417.7 916.37"/>
  <polyline class="cls-6" points="2405.4 928.67 2396.7 937.37 2390.55 943.52 2375.7 958.37"/>
  <polyline class="cls-6" points="2198.22 1165.55 2212.36 1151.41 2216.4 1147.37 2227.21 1136.56 2237.4 1126.37 2242.06 1121.71 2256.91 1106.86 2258.4 1105.37 2271.76 1092.01 2279.4 1084.37 2286.61 1077.16 2300.4 1063.37 2301.46 1062.31 2316.31 1047.47 2321.4 1042.37 2331.16 1032.62 2342.4 1021.37 2346.01 1017.77 2360.85 1002.92 2363.4 1000.37 2375.7 988.07 2384.4 979.37 2390.55 973.22"/>
  <polyline class="cls-6" points="2464.09 899.68 2449.95 913.82 2435.1 928.67"/>
  <polyline class="cls-6" points="2426.4 937.37 2420.25 943.52 2405.4 958.37"/>
  <polyline class="cls-6" points="2213.07 1180.4 2225.1 1168.37 2227.21 1166.26 2242.06 1151.41 2246.1 1147.37 2256.91 1136.56 2267.1 1126.37 2271.76 1121.71 2286.61 1106.86 2288.1 1105.37 2301.46 1092.01 2309.1 1084.37 2316.31 1077.16 2330.1 1063.37 2331.16 1062.32 2346.01 1047.47 2351.1 1042.37 2360.86 1032.62 2372.1 1021.37 2375.7 1017.77 2390.55 1002.92 2393.1 1000.37 2405.4 988.07 2414.1 979.37 2420.25 973.22"/>
  <polyline class="cls-6" points="2478.94 914.53 2464.8 928.67 2449.95 943.52"/>
  <polyline class="cls-6" points="2227.92 1195.25 2233.8 1189.37 2242.06 1181.11 2254.8 1168.37 2256.91 1166.26 2271.76 1151.41 2275.8 1147.37 2286.61 1136.56 2296.8 1126.37 2301.46 1121.71 2316.31 1106.86 2317.8 1105.37 2331.16 1092.01 2338.8 1084.37 2346.01 1077.17 2359.8 1063.37 2360.86 1062.32 2375.71 1047.47 2380.8 1042.37 2390.55 1032.62 2401.8 1021.37 2405.4 1017.77 2420.25 1002.92 2422.8 1000.37 2435.1 988.07 2443.8 979.37 2449.95 973.22"/>
  <polyline class="cls-6" points="2464.8 958.37 2479.65 943.52 2493.79 929.38"/>
  <polyline class="cls-6" points="2508.64 944.23 2494.5 958.37 2479.65 973.22 2464.8 988.07 2449.95 1002.92 2435.1 1017.77 2431.5 1021.37 2420.25 1032.62 2410.5 1042.37 2405.4 1047.47 2390.56 1062.32 2389.5 1063.37 2375.71 1077.17 2368.5 1084.37 2360.86 1092.02 2347.5 1105.37 2346.01 1106.86 2331.16 1121.71 2326.5 1126.37 2316.31 1136.56 2305.5 1147.37 2301.46 1151.41 2286.61 1166.26 2284.5 1168.37 2271.76 1181.11 2263.5 1189.37 2256.91 1195.96 2242.77 1210.1"/>
  <line class="cls-6" x1="2523.49" y1="959.07" x2="2257.62" y2="1224.95"/>
  <line class="cls-6" x1="2538.34" y1="973.92" x2="2272.47" y2="1239.79"/>
  <line class="cls-6" x1="2553.19" y1="988.77" x2="2287.32" y2="1254.64"/>
  <g>
    <line class="cls-6" x1="2444.91" y1="727.37" x2="2068.91" y2="727.37"/>
    <line class="cls-6" x1="2444.91" y1="748.37" x2="2068.91" y2="748.37"/>
    <polyline class="cls-6" points="2068.91 769.37 2119.22 769.37 2148.92 769.37 2178.62 769.37 2186.7 769.37 2208.32 769.37 2216.4 769.37 2238.02 769.37 2246.1 769.37 2267.72 769.37 2275.8 769.37 2297.42 769.37 2305.5 769.37 2327.12 769.37 2335.2 769.37 2364.9 769.37 2394.6 769.37 2444.91 769.37"/>
    <polyline class="cls-6" points="2444.91 790.37 2415.6 790.37 2385.9 790.37 2356.2 790.37 2335.82 790.37 2326.5 790.37 2306.12 790.37 2296.8 790.37"/>
    <line class="cls-6" x1="2276.42" y1="790.37" x2="2267.1" y2="790.37"/>
    <polyline class="cls-6" points="2246.72 790.37 2237.4 790.37 2217.02 790.37 2207.7 790.37 2187.32 790.37 2178 790.37 2157.62 790.37 2127.92 790.37 2098.22 790.37 2068.91 790.37"/>
    <polyline class="cls-6" points="2228.7 811.37 2225.72 811.37 2199 811.37 2196.02 811.37 2169.3 811.37 2166.32 811.37 2139.61 811.37 2136.62 811.37 2106.92 811.37 2077.22 811.37 2068.91 811.37"/>
    <polyline class="cls-6" points="2444.91 811.37 2436.6 811.37 2406.9 811.37 2377.2 811.37 2374.21 811.37 2347.5 811.37 2344.52 811.37 2317.8 811.37 2314.82 811.37"/>
    <polyline class="cls-6" points="2068.91 832.37 2085.92 832.37 2115.62 832.37 2130.91 832.37 2145.32 832.37 2160.61 832.37 2175.02 832.37 2190.3 832.37 2204.72 832.37"/>
    <polyline class="cls-6" points="2444.91 832.37 2427.9 832.37 2398.2 832.37 2382.91 832.37 2368.5 832.37 2353.21 832.37 2338.8 832.37 2323.52 832.37"/>
    <line class="cls-6" x1="2279.4" y1="832.37" x2="2264.12" y2="832.37"/>
    <polyline class="cls-6" points="2068.91 853.37 2094.62 853.37 2122.21 853.37 2124.32 853.37 2151.91 853.37 2154.02 853.37 2181.61 853.37 2183.72 853.37"/>
    <polyline class="cls-6" points="2444.91 853.37 2419.2 853.37 2391.61 853.37 2389.5 853.37 2361.91 853.37 2359.8 853.37"/>
    <line class="cls-6" x1="2213.42" y1="853.37" x2="2211.3" y2="853.37"/>
    <polyline class="cls-6" points="2243.12 853.37 2270.7 853.37 2272.82 853.37"/>
    <polyline class="cls-6" points="2302.52 853.37 2330.1 853.37 2332.21 853.37"/>
    <polyline class="cls-6" points="2068.91 874.37 2073.62 874.37 2083.82 874.37 2103.32 874.37 2113.52 874.37 2133.02 874.37 2143.21 874.37 2162.72 874.37"/>
    <polyline class="cls-6" points="2444.91 874.37 2440.2 874.37 2430 874.37 2410.5 874.37 2400.3 874.37 2380.8 874.37 2370.61 874.37"/>
    <polyline class="cls-6" points="2222.12 874.37 2232.3 874.37 2251.82 874.37"/>
    <polyline class="cls-6" points="2281.52 874.37 2291.7 874.37 2311.21 874.37"/>
    <line class="cls-6" x1="2351.1" y1="874.37" x2="2340.91" y2="874.37"/>
    <polyline class="cls-6" points="2068.91 895.37 2075.12 895.37 2082.32 895.37 2104.82 895.37 2112.02 895.37 2134.52 895.37 2141.72 895.37"/>
    <polyline class="cls-6" points="2444.91 895.37 2438.7 895.37 2431.5 895.37 2409 895.37 2401.8 895.37"/>
    <line class="cls-6" x1="2171.42" y1="895.37" x2="2164.21" y2="895.37"/>
    <polyline class="cls-6" points="2201.12 895.37 2223.61 895.37 2230.82 895.37"/>
    <polyline class="cls-6" points="2260.52 895.37 2283 895.37 2290.21 895.37"/>
    <polyline class="cls-6" points="2319.91 895.37 2342.4 895.37 2349.61 895.37 2372.1 895.37 2379.3 895.37"/>
    <polyline class="cls-6" points="2125.82 916.37 2120.72 916.37 2096.12 916.37 2091.02 916.37 2068.91 916.37"/>
    <polyline class="cls-6" points="2444.91 916.37 2422.8 916.37 2417.7 916.37"/>
    <polyline class="cls-6" points="2180.12 916.37 2185.21 916.37 2209.82 916.37"/>
    <polyline class="cls-6" points="2239.52 916.37 2244.61 916.37 2269.21 916.37"/>
    <polyline class="cls-6" points="2393.1 916.37 2388 916.37 2363.4 916.37 2358.3 916.37 2333.7 916.37"/>
    <polyline class="cls-6" points="2328.61 916.37 2304 916.37 2298.91 916.37"/>
    <polyline class="cls-6" points="2068.91 937.37 2070.02 937.37 2087.42 937.37 2099.72 937.37"/>
    <line class="cls-6" x1="2444.91" y1="937.37" x2="2443.8" y2="937.37"/>
    <line class="cls-6" x1="2129.42" y1="937.37" x2="2117.12" y2="937.37"/>
    <polyline class="cls-6" points="2159.12 937.37 2176.52 937.37 2188.82 937.37"/>
    <polyline class="cls-6" points="2426.4 937.37 2414.1 937.37 2396.7 937.37 2384.4 937.37 2367 937.37 2354.7 937.37"/>
    <polyline class="cls-6" points="2307.61 937.37 2295.3 937.37 2277.91 937.37"/>
    <line class="cls-6" x1="2286.61" y1="958.37" x2="2256.91" y2="958.37"/>
    <polyline class="cls-6" points="2375.7 958.37 2405.4 958.37 2435.1 958.37 2444.91 958.37"/>
    <line class="cls-6" x1="2167.82" y1="958.37" x2="2138.12" y2="958.37"/>
    <line class="cls-6" x1="2078.72" y1="958.37" x2="2068.91" y2="958.37"/>
    <line class="cls-6" x1="2286.61" y1="958.37" x2="2256.91" y2="958.37"/>
    <polyline class="cls-6" points="2375.7 958.37 2405.4 958.37 2435.1 958.37 2444.91 958.37"/>
    <line class="cls-6" x1="2167.82" y1="958.37" x2="2138.12" y2="958.37"/>
    <line class="cls-6" x1="2078.72" y1="958.37" x2="2068.91" y2="958.37"/>
    <polyline class="cls-6" points="2068.91 979.37 2070.02 979.37 2087.42 979.37 2099.72 979.37 2117.12 979.37 2129.42 979.37 2146.82 979.37 2159.12 979.37 2176.52 979.37 2188.82 979.37 2206.21 979.37 2218.52 979.37 2235.91 979.37 2248.21 979.37 2265.61 979.37 2277.91 979.37 2295.3 979.37 2307.61 979.37 2325 979.37 2337.3 979.37 2354.7 979.37 2367 979.37 2384.4 979.37 2396.7 979.37 2414.1 979.37 2426.4 979.37 2443.8 979.37 2444.91 979.37"/>
    <line class="cls-6" x1="2444.91" y1="1000.37" x2="2068.91" y2="1000.37"/>
    <line class="cls-6" x1="2444.91" y1="1021.37" x2="2068.91" y2="1021.37"/>
    <line class="cls-6" x1="2444.91" y1="1042.37" x2="2068.91" y2="1042.37"/>
    <line class="cls-6" x1="2444.91" y1="1063.37" x2="2068.91" y2="1063.37"/>
    <line class="cls-6" x1="2444.91" y1="1084.37" x2="2068.91" y2="1084.37"/>
    <line class="cls-6" x1="2444.91" y1="1105.37" x2="2068.91" y2="1105.37"/>
    <line class="cls-6" x1="2444.91" y1="1126.37" x2="2068.91" y2="1126.37"/>
    <line class="cls-6" x1="2444.91" y1="1147.37" x2="2068.91" y2="1147.37"/>
    <line class="cls-6" x1="2444.91" y1="1168.37" x2="2068.91" y2="1168.37"/>
    <line class="cls-6" x1="2444.91" y1="1189.37" x2="2068.91" y2="1189.37"/>
  </g>
  <line class="cls-6" x1="1960.63" y1="988.77" x2="2226.51" y2="1254.64"/>
  <line class="cls-6" x1="1975.48" y1="973.92" x2="2241.36" y2="1239.79"/>
  <line class="cls-6" x1="1990.33" y1="959.07" x2="2256.21" y2="1224.95"/>
  <line class="cls-6" x1="2005.18" y1="944.22" x2="2271.05" y2="1210.1"/>
  <polyline class="cls-6" points="2285.9 1195.25 2280.02 1189.37 2271.76 1181.11 2259.02 1168.37 2256.91 1166.26 2242.06 1151.41 2238.02 1147.37 2227.21 1136.56 2217.02 1126.37 2212.36 1121.71 2197.51 1106.86 2196.02 1105.37 2182.66 1092.01 2175.02 1084.37 2167.82 1077.17 2154.02 1063.37 2152.97 1062.32 2138.12 1047.47 2133.02 1042.37 2123.27 1032.62 2112.02 1021.37 2108.42 1017.77 2093.57 1002.92 2091.02 1000.37 2078.72 988.07 2070.02 979.37 2063.87 973.22 2049.02 958.37 2034.17 943.52 2020.03 929.38"/>
  <polyline class="cls-6" points="2300.75 1180.4 2288.72 1168.37 2286.61 1166.26 2271.76 1151.41 2267.72 1147.37 2256.91 1136.56 2246.72 1126.37 2242.06 1121.71 2227.21 1106.86 2225.72 1105.37 2212.36 1092.01 2204.72 1084.37 2197.51 1077.16 2183.72 1063.37 2182.67 1062.32 2167.82 1047.47 2162.72 1042.37 2152.97 1032.62 2141.72 1021.37 2138.12 1017.77 2123.27 1002.92 2120.72 1000.37 2108.42 988.07 2099.72 979.37 2093.57 973.22"/>
  <polyline class="cls-6" points="2078.72 958.37 2063.87 943.52 2049.02 928.67 2034.88 914.53"/>
  <polyline class="cls-6" points="2315.6 1165.55 2301.46 1151.41 2297.42 1147.37 2286.61 1136.56 2276.42 1126.37 2271.76 1121.71 2256.91 1106.86 2255.42 1105.37 2242.06 1092.01 2234.42 1084.37 2227.21 1077.16 2213.42 1063.37 2212.36 1062.31 2197.52 1047.47 2192.42 1042.37 2182.67 1032.62 2171.42 1021.37 2167.82 1017.77 2152.97 1002.92 2150.42 1000.37 2138.12 988.07 2129.42 979.37 2123.27 973.22"/>
  <polyline class="cls-6" points="2049.73 899.68 2063.87 913.82 2078.72 928.67 2087.42 937.37 2093.57 943.52"/>
  <polyline class="cls-6" points="2330.45 1150.7 2327.12 1147.37 2316.31 1136.56 2306.12 1126.37 2301.46 1121.71 2286.61 1106.86 2285.12 1105.37 2271.76 1092.01 2264.12 1084.37 2256.91 1077.16 2243.12 1063.37 2242.06 1062.31 2227.21 1047.46 2222.12 1042.37 2212.37 1032.62 2201.12 1021.37 2197.52 1017.77 2182.67 1002.92 2180.12 1000.37 2167.82 988.07 2159.12 979.37 2152.97 973.22"/>
  <polyline class="cls-6" points="2064.58 884.83 2075.12 895.37 2078.72 898.97 2093.57 913.82 2096.12 916.37 2108.42 928.67"/>
  <line class="cls-6" x1="2123.27" y1="943.52" x2="2117.12" y2="937.37"/>
  <polyline class="cls-6" points="2345.3 1135.85 2335.82 1126.37 2331.16 1121.71 2316.31 1106.86 2314.82 1105.37 2301.46 1092.01 2293.82 1084.37 2286.61 1077.16 2272.82 1063.37 2271.76 1062.31 2256.91 1047.46 2251.82 1042.37 2242.06 1032.61 2230.82 1021.37 2227.22 1017.77 2212.37 1002.92 2209.82 1000.37 2197.52 988.07 2188.82 979.37 2182.67 973.22"/>
  <polyline class="cls-6" points="2125.82 916.37 2123.27 913.82 2108.42 898.97 2104.82 895.37 2093.57 884.12 2083.82 874.37 2079.43 869.98"/>
  <line class="cls-6" x1="2167.82" y1="958.37" x2="2152.97" y2="943.52"/>
  <polyline class="cls-6" points="2360.15 1121 2346.01 1106.86 2344.52 1105.37 2331.16 1092.01 2323.52 1084.37 2316.31 1077.16 2302.52 1063.37 2301.46 1062.31 2286.61 1047.46 2281.52 1042.37 2271.76 1032.61 2260.52 1021.37 2256.91 1017.76 2242.07 1002.92 2239.52 1000.37 2227.22 988.07 2218.52 979.37 2212.37 973.22"/>
  <polyline class="cls-6" points="2094.28 855.13 2108.42 869.27 2113.52 874.37 2123.27 884.12 2134.52 895.37 2138.12 898.97"/>
  <polyline class="cls-6" points="2182.67 943.52 2176.52 937.37 2167.82 928.67"/>
  <polyline class="cls-6" points="2375 1106.16 2374.21 1105.37 2360.86 1092.02 2353.21 1084.37 2346.01 1077.17 2332.21 1063.37 2331.16 1062.32 2316.31 1047.47 2311.21 1042.37 2301.46 1032.62 2290.21 1021.37 2286.61 1017.77 2271.76 1002.92 2269.21 1000.37 2256.91 988.07 2248.21 979.37 2242.06 973.22"/>
  <polyline class="cls-6" points="2109.12 840.28 2122.21 853.37 2123.27 854.43 2138.12 869.28 2143.21 874.37 2152.97 884.13"/>
  <line class="cls-6" x1="2167.82" y1="898.98" x2="2164.21" y2="895.37"/>
  <polyline class="cls-6" points="2182.67 913.83 2185.21 916.37 2197.52 928.68"/>
  <polyline class="cls-6" points="2389.85 1091.31 2382.91 1084.37 2375.71 1077.17 2361.91 1063.37 2360.86 1062.32 2346.01 1047.47 2340.91 1042.37 2331.16 1032.62 2319.91 1021.37 2316.31 1017.77 2301.46 1002.92 2298.91 1000.37 2286.61 988.07 2277.91 979.37 2271.76 973.22"/>
  <polyline class="cls-6" points="2123.97 825.43 2130.91 832.37 2138.12 839.58 2151.91 853.37 2152.97 854.43 2167.82 869.28 2172.91 874.37"/>
  <line class="cls-6" x1="2235.91" y1="937.37" x2="2227.22" y2="928.68"/>
  <line class="cls-6" x1="2212.37" y1="913.83" x2="2197.52" y2="898.98"/>
  <polyline class="cls-6" points="2389.85 1091.31 2382.91 1084.37 2375.71 1077.17 2361.91 1063.37 2360.86 1062.32 2346.01 1047.47 2340.91 1042.37 2331.16 1032.62 2319.91 1021.37 2316.31 1017.77 2301.46 1002.92 2298.91 1000.37 2286.61 988.07 2277.91 979.37 2271.76 973.22"/>
  <polyline class="cls-6" points="2123.97 825.43 2130.91 832.37 2138.12 839.58 2151.91 853.37 2152.97 854.43 2167.82 869.28 2172.91 874.37"/>
  <line class="cls-6" x1="2235.91" y1="937.37" x2="2227.22" y2="928.68"/>
  <line class="cls-6" x1="2212.37" y1="913.83" x2="2197.52" y2="898.98"/>
  <polyline class="cls-6" points="2404.7 1076.46 2391.61 1063.37 2390.56 1062.32 2375.71 1047.47 2370.61 1042.37 2360.86 1032.62 2349.61 1021.37 2346.01 1017.77 2331.16 1002.92 2328.61 1000.37 2316.31 988.07 2307.61 979.37 2301.46 973.22"/>
  <polyline class="cls-6" points="2138.82 810.58 2139.61 811.37 2152.97 824.73 2160.61 832.37 2167.82 839.58 2181.61 853.37 2182.67 854.43"/>
  <line class="cls-6" x1="2286.61" y1="958.37" x2="2271.76" y2="943.52"/>
  <polyline class="cls-6" points="2256.91 928.67 2244.61 916.37 2242.07 913.83"/>
  <polyline class="cls-6" points="2227.22 898.98 2223.61 895.37 2212.37 884.13"/>
  <polyline class="cls-6" points="2419.54 1061.61 2405.4 1047.47 2400.3 1042.37 2390.55 1032.62 2379.3 1021.37 2375.7 1017.77 2360.85 1002.92 2358.3 1000.37 2346 988.07 2337.3 979.37 2331.15 973.22"/>
  <polyline class="cls-6" points="2153.67 795.74 2167.81 809.88 2169.3 811.37 2182.66 824.73 2190.3 832.37 2197.51 839.58"/>
  <line class="cls-6" x1="2212.36" y1="854.43" x2="2211.3" y2="853.37"/>
  <polyline class="cls-6" points="2227.21 869.28 2232.3 874.37 2242.06 884.13"/>
  <line class="cls-6" x1="2271.76" y1="913.83" x2="2256.91" y2="898.98"/>
  <polyline class="cls-6" points="2301.46 943.53 2295.3 937.37 2286.61 928.68"/>
  <polyline class="cls-6" points="2434.39 1046.76 2430 1042.37 2420.25 1032.62 2409 1021.37 2405.4 1017.77 2390.55 1002.92 2388 1000.37 2375.7 988.07 2367 979.37 2360.85 973.22"/>
  <polyline class="cls-6" points="2168.52 780.89 2178 790.37 2182.66 795.03 2197.51 809.88 2199 811.37 2212.36 824.73 2220 832.37"/>
  <polyline class="cls-6" points="2301.46 913.83 2304 916.37 2316.31 928.68"/>
  <polyline class="cls-6" points="2286.61 898.98 2283 895.37 2271.76 884.13"/>
  <line class="cls-6" x1="2256.91" y1="869.28" x2="2242.06" y2="854.43"/>
  <polyline class="cls-6" points="2449.24 1031.91 2438.7 1021.37 2435.1 1017.77 2420.25 1002.92 2417.7 1000.37 2405.4 988.07 2396.7 979.37 2390.55 973.22"/>
  <polyline class="cls-6" points="2228.7 811.37 2227.21 809.88 2212.36 795.03 2207.7 790.37 2197.51 780.18 2186.7 769.37 2183.37 766.04"/>
  <line class="cls-6" x1="2331.16" y1="913.83" x2="2316.31" y2="898.98"/>
  <polyline class="cls-6" points="2301.46 884.13 2291.7 874.37 2286.61 869.28"/>
  <polyline class="cls-6" points="2271.76 854.43 2270.7 853.37 2256.91 839.58"/>
  <polyline class="cls-6" points="2464.09 1017.06 2449.95 1002.92 2435.1 988.07 2426.4 979.37 2420.25 973.22"/>
  <polyline class="cls-6" points="2198.22 751.19 2212.36 765.33 2216.4 769.37 2227.21 780.18 2237.4 790.37 2242.06 795.03"/>
  <polyline class="cls-6" points="2331.16 884.13 2342.4 895.37 2346.01 898.98 2360.85 913.82 2363.4 916.37 2375.7 928.67 2384.4 937.37 2390.55 943.52 2405.4 958.37"/>
  <line class="cls-6" x1="2316.31" y1="869.28" x2="2301.46" y2="854.43"/>
  <line class="cls-6" x1="2271.76" y1="795.03" x2="2267.1" y2="790.37"/>
  <polyline class="cls-6" points="2316.31 839.58 2330.1 853.37 2331.16 854.43"/>
  <polyline class="cls-6" points="2478.94 1002.21 2464.8 988.07 2449.95 973.22 2435.1 958.37 2420.25 943.52 2414.1 937.37 2405.4 928.67 2393.1 916.37 2390.55 913.82 2375.7 898.97 2372.1 895.37 2360.86 884.13 2351.1 874.37 2346.01 869.28"/>
  <polyline class="cls-6" points="2256.91 780.18 2246.1 769.37 2242.06 765.33 2227.21 750.48 2225.1 748.37 2213.07 736.34"/>
  <polyline class="cls-6" points="2493.79 987.36 2479.65 973.22 2464.8 958.37 2449.95 943.52 2443.8 937.37 2435.1 928.67 2422.8 916.37 2420.25 913.82 2405.4 898.97 2401.8 895.37 2390.55 884.12 2380.8 874.37 2375.71 869.28 2360.86 854.43 2359.8 853.37 2346.01 839.58 2338.8 832.37 2331.16 824.73 2317.8 811.37 2316.31 809.88 2301.46 795.03 2296.8 790.37 2286.61 780.18 2275.8 769.37 2271.76 765.33 2256.91 750.48 2254.8 748.37 2242.06 735.63 2233.8 727.37 2227.92 721.49"/>
  <line class="cls-6" x1="2242.77" y1="706.64" x2="2508.64" y2="972.51"/>
  <line class="cls-6" x1="2257.62" y1="691.79" x2="2523.49" y2="957.66"/>
  <line class="cls-6" x1="2272.47" y1="676.94" x2="2538.34" y2="942.81"/>
  <line class="cls-6" x1="2287.32" y1="662.09" x2="2553.19" y2="927.96"/>
  <g>
    <line class="cls-6" x1="2226.51" y1=".09" x2="1960.63" y2="265.96"/>
    <line class="cls-6" x1="2241.36" y1="14.94" x2="1975.48" y2="280.81"/>
    <line class="cls-6" x1="2256.21" y1="29.79" x2="1990.33" y2="295.66"/>
    <line class="cls-6" x1="2271.05" y1="44.64" x2="2005.18" y2="310.51"/>
    <line class="cls-6" x1="2285.9" y1="59.49" x2="2020.03" y2="325.36"/>
    <line class="cls-6" x1="2300.75" y1="74.33" x2="2034.88" y2="340.21"/>
    <line class="cls-6" x1="2315.6" y1="89.18" x2="2049.73" y2="355.06"/>
    <line class="cls-6" x1="2330.45" y1="104.03" x2="2064.58" y2="369.91"/>
    <line class="cls-6" x1="2345.3" y1="118.88" x2="2079.43" y2="384.75"/>
    <line class="cls-6" x1="2360.15" y1="133.73" x2="2094.28" y2="399.6"/>
    <line class="cls-6" x1="2375" y1="148.58" x2="2109.13" y2="414.45"/>
    <line class="cls-6" x1="2389.85" y1="163.43" x2="2123.98" y2="429.3"/>
    <line class="cls-6" x1="2389.85" y1="163.43" x2="2123.98" y2="429.3"/>
    <line class="cls-6" x1="2404.7" y1="178.28" x2="2138.83" y2="444.15"/>
    <line class="cls-6" x1="2419.55" y1="193.13" x2="2153.68" y2="459"/>
    <line class="cls-6" x1="2434.4" y1="207.98" x2="2168.52" y2="473.85"/>
    <line class="cls-6" x1="2449.25" y1="222.83" x2="2183.37" y2="488.7"/>
    <line class="cls-6" x1="2464.09" y1="237.68" x2="2198.22" y2="503.55"/>
    <line class="cls-6" x1="2478.94" y1="252.53" x2="2213.07" y2="518.4"/>
    <line class="cls-6" x1="2493.79" y1="267.37" x2="2227.92" y2="533.25"/>
    <line class="cls-6" x1="2508.64" y1="282.22" x2="2242.77" y2="548.1"/>
    <line class="cls-6" x1="2523.49" y1="297.07" x2="2257.62" y2="562.95"/>
    <line class="cls-6" x1="2538.34" y1="311.92" x2="2272.47" y2="577.79"/>
    <line class="cls-6" x1="2553.19" y1="326.77" x2="2287.32" y2="592.64"/>
  </g>
  <g>
    <line class="cls-6" x1="2444.91" y1="65.37" x2="2068.91" y2="65.37"/>
    <line class="cls-6" x1="2444.91" y1="86.37" x2="2068.91" y2="86.37"/>
    <line class="cls-6" x1="2444.91" y1="107.37" x2="2068.91" y2="107.37"/>
    <line class="cls-6" x1="2444.91" y1="128.37" x2="2068.91" y2="128.37"/>
    <line class="cls-6" x1="2444.91" y1="149.37" x2="2068.91" y2="149.37"/>
    <line class="cls-6" x1="2444.91" y1="170.37" x2="2068.91" y2="170.37"/>
    <line class="cls-6" x1="2444.91" y1="191.37" x2="2068.91" y2="191.37"/>
    <line class="cls-6" x1="2444.91" y1="212.37" x2="2068.91" y2="212.37"/>
    <line class="cls-6" x1="2444.91" y1="233.37" x2="2068.91" y2="233.37"/>
    <line class="cls-6" x1="2444.91" y1="254.37" x2="2068.91" y2="254.37"/>
    <line class="cls-6" x1="2444.91" y1="275.37" x2="2068.91" y2="275.37"/>
    <line class="cls-6" x1="2444.91" y1="296.37" x2="2068.91" y2="296.37"/>
    <line class="cls-6" x1="2444.91" y1="296.37" x2="2068.91" y2="296.37"/>
    <line class="cls-6" x1="2444.91" y1="317.37" x2="2068.91" y2="317.37"/>
    <line class="cls-6" x1="2444.91" y1="338.37" x2="2068.91" y2="338.37"/>
    <line class="cls-6" x1="2444.91" y1="359.37" x2="2068.91" y2="359.37"/>
    <line class="cls-6" x1="2444.91" y1="380.37" x2="2068.91" y2="380.37"/>
    <line class="cls-6" x1="2444.91" y1="401.37" x2="2068.91" y2="401.37"/>
    <line class="cls-6" x1="2444.91" y1="422.37" x2="2068.91" y2="422.37"/>
    <line class="cls-6" x1="2444.91" y1="443.37" x2="2068.91" y2="443.37"/>
    <line class="cls-6" x1="2444.91" y1="464.37" x2="2068.91" y2="464.37"/>
    <line class="cls-6" x1="2444.91" y1="485.37" x2="2068.91" y2="485.37"/>
    <line class="cls-6" x1="2444.91" y1="506.37" x2="2068.91" y2="506.37"/>
    <line class="cls-6" x1="2444.91" y1="527.37" x2="2068.91" y2="527.37"/>
  </g>
  <g>
    <line class="cls-6" x1="1960.63" y1="326.77" x2="2226.51" y2="592.64"/>
    <line class="cls-6" x1="1975.48" y1="311.92" x2="2241.36" y2="577.79"/>
    <line class="cls-6" x1="1990.33" y1="297.07" x2="2256.21" y2="562.95"/>
    <line class="cls-6" x1="2005.18" y1="282.22" x2="2271.05" y2="548.1"/>
    <line class="cls-6" x1="2020.03" y1="267.37" x2="2285.9" y2="533.25"/>
    <line class="cls-6" x1="2034.88" y1="252.53" x2="2300.75" y2="518.4"/>
    <line class="cls-6" x1="2049.73" y1="237.68" x2="2315.6" y2="503.55"/>
    <line class="cls-6" x1="2064.58" y1="222.83" x2="2330.45" y2="488.7"/>
    <line class="cls-6" x1="2079.43" y1="207.98" x2="2345.3" y2="473.85"/>
    <line class="cls-6" x1="2094.28" y1="193.13" x2="2360.15" y2="459"/>
    <line class="cls-6" x1="2109.13" y1="178.28" x2="2375" y2="444.15"/>
    <line class="cls-6" x1="2123.98" y1="163.43" x2="2389.85" y2="429.3"/>
    <line class="cls-6" x1="2123.98" y1="163.43" x2="2389.85" y2="429.3"/>
    <line class="cls-6" x1="2138.83" y1="148.58" x2="2404.7" y2="414.45"/>
    <line class="cls-6" x1="2153.67" y1="133.73" x2="2419.55" y2="399.6"/>
    <line class="cls-6" x1="2168.52" y1="118.88" x2="2434.4" y2="384.75"/>
    <line class="cls-6" x1="2183.37" y1="104.03" x2="2449.25" y2="369.91"/>
    <line class="cls-6" x1="2198.22" y1="89.18" x2="2464.09" y2="355.06"/>
    <line class="cls-6" x1="2213.07" y1="74.33" x2="2478.94" y2="340.21"/>
    <line class="cls-6" x1="2227.92" y1="59.49" x2="2493.79" y2="325.36"/>
    <line class="cls-6" x1="2242.77" y1="44.64" x2="2508.64" y2="310.51"/>
    <line class="cls-6" x1="2257.62" y1="29.79" x2="2523.49" y2="295.66"/>
    <line class="cls-6" x1="2272.47" y1="14.94" x2="2538.34" y2="280.81"/>
    <line class="cls-6" x1="2287.32" y1=".09" x2="2553.19" y2="265.96"/>
  </g>
  <g>
    <line class="cls-6" x1="3046.91" y1="770.37" x2="3046.91" y2="1146.37"/>
    <line class="cls-6" x1="3067.91" y1="770.37" x2="3067.91" y2="1146.37"/>
    <line class="cls-6" x1="3088.91" y1="770.37" x2="3088.91" y2="1146.37"/>
    <line class="cls-6" x1="3109.91" y1="770.37" x2="3109.91" y2="1146.37"/>
    <line class="cls-6" x1="3130.91" y1="770.37" x2="3130.91" y2="1146.37"/>
    <line class="cls-6" x1="3151.91" y1="770.37" x2="3151.91" y2="1146.37"/>
    <line class="cls-6" x1="3172.91" y1="770.37" x2="3172.91" y2="1146.37"/>
    <line class="cls-6" x1="3193.91" y1="770.37" x2="3193.91" y2="1146.37"/>
    <line class="cls-6" x1="3214.91" y1="770.37" x2="3214.91" y2="1146.37"/>
    <line class="cls-6" x1="3235.91" y1="770.37" x2="3235.91" y2="1146.37"/>
    <line class="cls-6" x1="3256.91" y1="770.37" x2="3256.91" y2="1146.37"/>
    <line class="cls-6" x1="3277.91" y1="770.37" x2="3277.91" y2="1146.37"/>
    <line class="cls-6" x1="3277.91" y1="770.37" x2="3277.91" y2="1146.37"/>
    <line class="cls-6" x1="3298.91" y1="770.37" x2="3298.91" y2="1146.37"/>
    <line class="cls-6" x1="3319.91" y1="770.37" x2="3319.91" y2="1146.37"/>
    <line class="cls-6" x1="3340.91" y1="770.37" x2="3340.91" y2="1146.37"/>
    <line class="cls-6" x1="3361.91" y1="770.37" x2="3361.91" y2="1146.37"/>
    <line class="cls-6" x1="3382.91" y1="770.37" x2="3382.91" y2="1146.37"/>
    <line class="cls-6" x1="3403.91" y1="770.37" x2="3403.91" y2="1146.37"/>
    <line class="cls-6" x1="3424.91" y1="770.37" x2="3424.91" y2="1146.37"/>
    <line class="cls-6" x1="3445.91" y1="770.37" x2="3445.91" y2="1146.37"/>
    <line class="cls-6" x1="3466.91" y1="770.37" x2="3466.91" y2="1146.37"/>
    <line class="cls-6" x1="3487.91" y1="770.37" x2="3487.91" y2="1146.37"/>
    <line class="cls-6" x1="3508.91" y1="770.37" x2="3508.91" y2="1146.37"/>
  </g>
  <g>
    <line class="cls-6" x1="3465.91" y1="727.37" x2="3089.91" y2="727.37"/>
    <line class="cls-6" x1="3465.91" y1="748.37" x2="3089.91" y2="748.37"/>
    <line class="cls-6" x1="3465.91" y1="769.37" x2="3089.91" y2="769.37"/>
    <line class="cls-6" x1="3465.91" y1="790.37" x2="3089.91" y2="790.37"/>
    <line class="cls-6" x1="3465.91" y1="811.37" x2="3089.91" y2="811.37"/>
    <line class="cls-6" x1="3465.91" y1="832.37" x2="3089.91" y2="832.37"/>
    <line class="cls-6" x1="3465.91" y1="853.37" x2="3089.91" y2="853.37"/>
    <line class="cls-6" x1="3465.91" y1="874.37" x2="3089.91" y2="874.37"/>
    <line class="cls-6" x1="3465.91" y1="895.37" x2="3089.91" y2="895.37"/>
    <line class="cls-6" x1="3465.91" y1="916.37" x2="3089.91" y2="916.37"/>
    <line class="cls-6" x1="3465.91" y1="937.37" x2="3089.91" y2="937.37"/>
    <line class="cls-6" x1="3465.91" y1="958.37" x2="3089.91" y2="958.37"/>
    <line class="cls-6" x1="3465.91" y1="958.37" x2="3089.91" y2="958.37"/>
    <line class="cls-6" x1="3465.91" y1="979.37" x2="3089.91" y2="979.37"/>
    <line class="cls-6" x1="3465.91" y1="1000.37" x2="3089.91" y2="1000.37"/>
    <line class="cls-6" x1="3465.91" y1="1021.37" x2="3089.91" y2="1021.37"/>
    <line class="cls-6" x1="3465.91" y1="1042.37" x2="3089.91" y2="1042.37"/>
    <line class="cls-6" x1="3465.91" y1="1063.37" x2="3089.91" y2="1063.37"/>
    <line class="cls-6" x1="3465.91" y1="1084.37" x2="3089.91" y2="1084.37"/>
    <line class="cls-6" x1="3465.91" y1="1105.37" x2="3089.91" y2="1105.37"/>
    <line class="cls-6" x1="3465.91" y1="1126.37" x2="3089.91" y2="1126.37"/>
    <line class="cls-6" x1="3465.91" y1="1147.37" x2="3089.91" y2="1147.37"/>
    <line class="cls-6" x1="3465.91" y1="1168.37" x2="3089.91" y2="1168.37"/>
    <line class="cls-6" x1="3465.91" y1="1189.37" x2="3089.91" y2="1189.37"/>
  </g>
  <g>
    <line class="cls-6" x1="2981.63" y1="988.77" x2="3247.51" y2="1254.64"/>
    <line class="cls-6" x1="2996.48" y1="973.92" x2="3262.36" y2="1239.79"/>
    <line class="cls-6" x1="3011.33" y1="959.07" x2="3277.21" y2="1224.95"/>
    <line class="cls-6" x1="3026.18" y1="944.22" x2="3292.05" y2="1210.1"/>
    <line class="cls-6" x1="3041.03" y1="929.37" x2="3306.9" y2="1195.25"/>
    <line class="cls-6" x1="3055.88" y1="914.53" x2="3321.75" y2="1180.4"/>
    <line class="cls-6" x1="3070.73" y1="899.68" x2="3336.6" y2="1165.55"/>
    <line class="cls-6" x1="3085.58" y1="884.83" x2="3351.45" y2="1150.7"/>
    <line class="cls-6" x1="3100.43" y1="869.98" x2="3366.3" y2="1135.85"/>
    <line class="cls-6" x1="3115.28" y1="855.13" x2="3381.15" y2="1121"/>
    <line class="cls-6" x1="3130.13" y1="840.28" x2="3396" y2="1106.15"/>
    <line class="cls-6" x1="3144.98" y1="825.43" x2="3410.85" y2="1091.3"/>
    <line class="cls-6" x1="3144.98" y1="825.43" x2="3410.85" y2="1091.3"/>
    <line class="cls-6" x1="3159.83" y1="810.58" x2="3425.7" y2="1076.45"/>
    <line class="cls-6" x1="3174.67" y1="795.73" x2="3440.55" y2="1061.6"/>
    <line class="cls-6" x1="3189.52" y1="780.88" x2="3455.4" y2="1046.75"/>
    <line class="cls-6" x1="3204.37" y1="766.03" x2="3470.25" y2="1031.91"/>
    <line class="cls-6" x1="3219.22" y1="751.18" x2="3485.09" y2="1017.06"/>
    <line class="cls-6" x1="3234.07" y1="736.33" x2="3499.94" y2="1002.21"/>
    <line class="cls-6" x1="3248.92" y1="721.49" x2="3514.79" y2="987.36"/>
    <line class="cls-6" x1="3263.77" y1="706.64" x2="3529.64" y2="972.51"/>
    <line class="cls-6" x1="3278.62" y1="691.79" x2="3544.49" y2="957.66"/>
    <line class="cls-6" x1="3293.47" y1="676.94" x2="3559.34" y2="942.81"/>
    <line class="cls-6" x1="3308.32" y1="662.09" x2="3574.19" y2="927.96"/>
  </g>
  <g>
    <polygon class="cls-3" points="2535.01 1750.28 2529.91 1755.37 2520.16 1765.13 2508.91 1776.37 2505.31 1779.98 2490.46 1794.83 2487.91 1797.37 2475.61 1809.68 2466.91 1818.37 2445.91 1839.37 2356.82 1839.37 2371.67 1824.52 2377.82 1818.37 2386.52 1809.68 2398.82 1797.37 2401.37 1794.83 2416.22 1779.98 2419.82 1776.37 2431.06 1765.13 2440.82 1755.37 2461.82 1734.37 2475.61 1720.58 2460.76 1705.73 2453.12 1713.37 2432.12 1734.37 2430 1734.37 2431.06 1735.43 2416.21 1750.28 2411.12 1755.37 2401.37 1765.13 2390.12 1776.37 2386.52 1779.98 2371.67 1794.83 2369.12 1797.37 2356.82 1809.67 2348.12 1818.37 2327.12 1839.37 2297.42 1839.37 2341.97 1794.82 2356.82 1779.98 2360.42 1776.37 2371.67 1765.13 2381.42 1755.37 2386.52 1750.28 2401.36 1735.43 2445.91 1690.88 2460.76 1676.03 2505.31 1720.58 2491.52 1734.37 2489.4 1734.37 2490.46 1735.43 2445.91 1779.98 2431.07 1794.83 2428.52 1797.37 2416.22 1809.68 2407.52 1818.37 2437.21 1818.37 2458.21 1797.37 2460.76 1794.83 2475.61 1779.98 2479.21 1776.37 2490.46 1765.13 2500.21 1755.37 2505.31 1750.28 2520.16 1735.43 2535.01 1750.28"/>
    <polygon class="cls-3" points="2564.7 1839.37 2475.61 1839.37 2490.46 1824.53 2496.61 1818.37 2505.31 1809.68 2517.61 1797.37 2520.16 1794.83 2522.7 1797.37 2535 1809.67 2543.7 1818.37 2564.7 1839.37"/>
    <rect class="cls-2" x="2539.91" y="1785.37" width="34" height="34" rx="17" ry="17"/>
  </g>
  <g>
    <polyline class="cls-5" points="4355.41 1555.87 4355.41 1570.87 4340.41 1570.87"/>
    <polyline class="cls-5" points="4142.41 1570.87 4127.41 1570.87 4127.41 1555.87"/>
    <polyline class="cls-5" points="4127.41 1357.87 4127.41 1342.87 4142.41 1342.87"/>
    <polyline class="cls-5" points="4340.41 1342.87 4355.41 1342.87 4355.41 1357.87"/>
  </g>
  <g>
    <g>
      <polygon class="cls-2" points="894.91 2119.37 884.2 2119.37 884.2 2117.42 892.96 2117.42 892.96 2108.65 894.91 2108.65 894.91 2119.37"/>
      <polygon class="cls-2" points="755.63 2119.37 744.91 2119.37 744.91 2108.65 746.86 2108.65 746.86 2117.42 755.63 2117.42 755.63 2119.37"/>
      <polygon class="cls-2" points="746.86 1980.08 744.91 1980.08 744.91 1969.37 755.63 1969.37 755.63 1971.31 746.86 1971.31 746.86 1980.08"/>
      <polygon class="cls-2" points="894.91 1980.08 892.96 1980.08 892.96 1971.31 884.2 1971.31 884.2 1969.37 894.91 1969.37 894.91 1980.08"/>
    </g>
    <g>
      <g>
        <polygon class="cls-3" points="867.34 2040.82 864.91 2043.25 860.25 2047.91 854.88 2053.28 853.16 2055 846.07 2062.09 844.86 2063.31 838.98 2069.18 834.83 2073.33 824.8 2083.36 782.27 2083.36 789.36 2076.27 792.3 2073.33 796.45 2069.18 802.32 2063.31 803.54 2062.09 810.63 2055 812.35 2053.28 817.71 2047.91 822.37 2043.25 832.4 2033.23 838.98 2026.64 831.89 2019.56 828.25 2023.2 818.22 2033.23 817.21 2033.23 817.71 2033.73 810.62 2040.82 808.19 2043.25 803.54 2047.91 798.17 2053.28 796.45 2055 789.36 2062.09 788.14 2063.31 782.27 2069.18 778.12 2073.33 768.09 2083.36 753.91 2083.36 775.18 2062.09 782.27 2055 783.99 2053.28 789.36 2047.91 794.02 2043.25 796.45 2040.82 803.53 2033.73 824.8 2012.47 831.89 2005.38 853.16 2026.64 846.58 2033.23 845.57 2033.23 846.07 2033.73 824.8 2055 817.72 2062.09 816.5 2063.31 810.63 2069.18 806.48 2073.33 820.65 2073.33 830.68 2063.31 831.89 2062.09 838.98 2055 840.7 2053.28 846.07 2047.91 850.73 2043.25 853.16 2040.82 860.25 2033.73 867.34 2040.82"/>
        <polygon class="cls-3" points="881.52 2083.36 838.98 2083.36 846.07 2076.27 849.01 2073.33 853.16 2069.18 859.03 2063.31 860.25 2062.09 861.46 2063.31 867.34 2069.18 871.49 2073.33 881.52 2083.36"/>
      </g>
      <circle class="cls-2" cx="877.81" cy="2065.67" r="7.8"/>
    </g>
  </g>
  <g>
    <g>
      <path class="cls-13" d="m3908.33,3142.19h-28.83l-4.77,13.8h-15.25l26.03-72.5h16.91l26.03,72.5h-15.35l-4.77-13.8Zm-3.94-11.62l-10.48-30.29-10.48,30.29h20.95Z"/>
      <path class="cls-13" d="m3940.77,3154.38c-3.73-1.69-6.69-3.99-8.87-6.9-2.18-2.91-3.37-6.12-3.58-9.65h14.62c.28,2.21,1.36,4.04,3.27,5.5,1.9,1.45,4.27,2.18,7.1,2.18s4.93-.55,6.48-1.66c1.56-1.1,2.33-2.52,2.33-4.25,0-1.87-.95-3.27-2.85-4.2-1.9-.93-4.93-1.95-9.08-3.06-4.29-1.04-7.8-2.11-10.53-3.21-2.73-1.11-5.08-2.8-7.05-5.08-1.97-2.28-2.96-5.36-2.96-9.23,0-3.18.92-6.08,2.75-8.71,1.83-2.63,4.46-4.7,7.88-6.22s7.45-2.28,12.08-2.28c6.85,0,12.31,1.71,16.39,5.13,4.08,3.42,6.33,8.04,6.74,13.85h-13.9c-.21-2.28-1.16-4.1-2.85-5.44-1.69-1.35-3.96-2.02-6.79-2.02-2.63,0-4.65.48-6.07,1.45-1.42.97-2.13,2.32-2.13,4.04,0,1.94.97,3.41,2.9,4.41,1.93,1,4.94,2.02,9.02,3.06,4.15,1.04,7.57,2.11,10.27,3.21,2.7,1.11,5.03,2.82,7,5.13,1.97,2.32,2.99,5.38,3.06,9.18,0,3.32-.92,6.29-2.75,8.92-1.83,2.63-4.46,4.69-7.88,6.17-3.42,1.49-7.42,2.23-11.98,2.23s-8.92-.85-12.65-2.54Z"/>
      <path class="cls-13" d="m4005.46,3100.24c3.28-1.76,7.03-2.65,11.25-2.65,4.91,0,9.35,1.21,13.33,3.63,3.98,2.42,7.12,5.86,9.44,10.32s3.48,9.63,3.48,15.51-1.16,11.08-3.48,15.61c-2.32,4.53-5.46,8.04-9.44,10.53-3.98,2.49-8.42,3.73-13.33,3.73-4.22,0-7.93-.87-11.15-2.59-3.22-1.73-5.83-3.91-7.83-6.53v35.57h-14.52v-84.84h14.52v8.3c1.87-2.63,4.44-4.82,7.73-6.59Zm20.54,17.84c-1.42-2.52-3.29-4.44-5.6-5.76-2.32-1.31-4.82-1.97-7.52-1.97s-5.1.67-7.42,2.02c-2.32,1.35-4.18,3.3-5.6,5.86-1.42,2.56-2.13,5.57-2.13,9.02s.71,6.47,2.13,9.02c1.42,2.56,3.28,4.51,5.6,5.86,2.32,1.35,4.79,2.02,7.42,2.02s5.2-.69,7.52-2.07c2.32-1.38,4.18-3.35,5.6-5.91,1.42-2.56,2.13-5.6,2.13-9.13s-.71-6.45-2.13-8.97Z"/>
      <path class="cls-13" d="m4102.63,3131.61h-42c.35,4.15,1.8,7.4,4.36,9.75,2.56,2.35,5.7,3.53,9.44,3.53,5.39,0,9.23-2.32,11.51-6.95h15.66c-1.66,5.53-4.84,10.08-9.54,13.64-4.7,3.56-10.48,5.34-17.32,5.34-5.53,0-10.49-1.23-14.88-3.68-4.39-2.45-7.81-5.93-10.27-10.42-2.46-4.49-3.68-9.68-3.68-15.56s1.21-11.17,3.63-15.66c2.42-4.49,5.81-7.95,10.16-10.37,4.36-2.42,9.37-3.63,15.04-3.63s10.35,1.18,14.68,3.53c4.32,2.35,7.67,5.69,10.06,10.01,2.39,4.32,3.58,9.28,3.58,14.88,0,2.07-.14,3.94-.42,5.6Zm-14.62-9.75c-.07-3.73-1.42-6.72-4.04-8.97-2.63-2.25-5.84-3.37-9.65-3.37-3.6,0-6.62,1.09-9.08,3.27-2.46,2.18-3.96,5.2-4.51,9.08h27.28Z"/>
      <path class="cls-13" d="m4109.62,3111.65c2.42-4.46,5.77-7.92,10.06-10.37,4.29-2.45,9.19-3.68,14.73-3.68,7.12,0,13.02,1.78,17.68,5.34,4.67,3.56,7.79,8.56,9.39,14.99h-15.66c-.83-2.49-2.23-4.44-4.2-5.86-1.97-1.42-4.41-2.13-7.31-2.13-4.15,0-7.43,1.5-9.85,4.51-2.42,3.01-3.63,7.28-3.63,12.81s1.21,9.7,3.63,12.7c2.42,3.01,5.7,4.51,9.85,4.51,5.88,0,9.71-2.63,11.51-7.88h15.66c-1.59,6.22-4.74,11.17-9.44,14.83-4.7,3.67-10.58,5.5-17.63,5.5-5.53,0-10.44-1.23-14.73-3.68-4.29-2.45-7.64-5.91-10.06-10.37-2.42-4.46-3.63-9.66-3.63-15.61s1.21-11.15,3.63-15.61Z"/>
      <path class="cls-13" d="m4184.2,3110.45v27.8c0,1.94.47,3.34,1.4,4.2.93.87,2.51,1.3,4.72,1.3h6.74v12.24h-9.13c-12.24,0-18.36-5.95-18.36-17.84v-27.69h-6.85v-11.93h6.85v-14.21h14.62v14.21h12.86v11.93h-12.86Z"/>
      <path class="cls-13" d="m4241.35,3083.59v44.81c0,4.91,1.28,8.66,3.84,11.25,2.56,2.59,6.15,3.89,10.79,3.89s8.33-1.3,10.89-3.89c2.56-2.59,3.84-6.34,3.84-11.25v-44.81h14.62v44.7c0,6.15-1.33,11.36-3.99,15.61-2.66,4.25-6.22,7.45-10.68,9.59-4.46,2.14-9.42,3.22-14.88,3.22s-10.29-1.07-14.68-3.22c-4.39-2.14-7.87-5.34-10.42-9.59-2.56-4.25-3.84-9.45-3.84-15.61v-44.7h14.52Z"/>
      <path class="cls-13" d="m4310.46,3083.59v72.39h-14.52v-72.39h14.52Z"/>
    </g>
    <g>
      <g>
        <polygon class="cls-13" points="3834.91 3208.37 3824.2 3208.37 3824.2 3206.42 3832.96 3206.42 3832.96 3197.65 3834.91 3197.65 3834.91 3208.37"/>
        <polygon class="cls-13" points="3695.63 3208.37 3684.91 3208.37 3684.91 3197.65 3686.86 3197.65 3686.86 3206.42 3695.63 3206.42 3695.63 3208.37"/>
        <polygon class="cls-13" points="3686.86 3069.08 3684.91 3069.08 3684.91 3058.37 3695.63 3058.37 3695.63 3060.31 3686.86 3060.31 3686.86 3069.08"/>
        <polygon class="cls-13" points="3834.91 3069.08 3832.96 3069.08 3832.96 3060.31 3824.2 3060.31 3824.2 3058.37 3834.91 3058.37 3834.91 3069.08"/>
      </g>
      <g>
        <g>
          <polygon class="cls-13" points="3807.34 3129.83 3804.9 3132.26 3800.25 3136.92 3794.88 3142.28 3793.16 3144.01 3786.07 3151.1 3784.85 3152.31 3778.98 3158.19 3774.83 3162.33 3764.8 3172.36 3722.27 3172.36 3729.36 3165.27 3732.29 3162.33 3736.45 3158.19 3742.32 3152.31 3743.54 3151.1 3750.63 3144.01 3752.35 3142.28 3757.71 3136.92 3762.37 3132.26 3772.4 3122.23 3778.98 3115.65 3771.89 3108.56 3750.62 3129.83 3748.19 3132.26 3743.54 3136.92 3738.17 3142.28 3736.45 3144.01 3729.36 3151.1 3728.14 3152.31 3722.27 3158.18 3718.11 3162.33 3708.09 3172.36 3693.91 3172.36 3715.18 3151.09 3722.27 3144.01 3723.99 3142.28 3729.36 3136.92 3734.01 3132.26 3736.45 3129.83 3743.53 3122.74 3771.89 3094.38 3793.16 3115.65 3786.07 3122.74 3764.8 3144.01 3757.72 3151.1 3756.5 3152.31 3750.63 3158.19 3746.47 3162.33 3760.65 3162.33 3770.67 3152.31 3771.89 3151.1 3778.98 3144.01 3780.7 3142.28 3786.07 3136.92 3790.72 3132.26 3793.16 3129.83 3800.25 3122.74 3807.34 3129.83"/>
          <polygon class="cls-13" points="3821.52 3172.36 3778.98 3172.36 3786.07 3165.27 3789.01 3162.33 3793.16 3158.18 3799.03 3152.31 3800.25 3151.09 3801.46 3152.31 3807.34 3158.18 3811.49 3162.33 3821.52 3172.36"/>
        </g>
        <circle class="cls-13" cx="3817.81" cy="3154.67" r="7.8"/>
      </g>
    </g>
  </g>
  <g>
    <g>
      <path class="cls-13" d="m2566.03,3599.33h-28.73l-4.75,13.75h-15.19l25.94-72.25h16.85l25.94,72.25h-15.3l-4.75-13.75Zm-3.93-11.58l-10.44-30.18-10.44,30.18h20.88Z"/>
      <path class="cls-13" d="m2605.1,3611.48c-3.72-1.69-6.67-3.98-8.84-6.87-2.17-2.89-3.36-6.1-3.57-9.61h14.57c.27,2.21,1.36,4.03,3.26,5.48,1.89,1.45,4.25,2.17,7.08,2.17s4.91-.55,6.46-1.65c1.55-1.1,2.33-2.51,2.33-4.24,0-1.86-.95-3.26-2.84-4.19-1.9-.93-4.91-1.95-9.04-3.05-4.27-1.03-7.77-2.1-10.49-3.2-2.72-1.1-5.06-2.79-7.03-5.06-1.96-2.27-2.95-5.34-2.95-9.2,0-3.17.91-6.06,2.74-8.68,1.82-2.62,4.44-4.68,7.86-6.2,3.41-1.51,7.42-2.27,12.04-2.27,6.82,0,12.26,1.71,16.33,5.12,4.06,3.41,6.3,8.01,6.72,13.8h-13.85c-.21-2.27-1.15-4.08-2.84-5.43-1.69-1.34-3.95-2.02-6.77-2.02-2.62,0-4.64.48-6.05,1.45-1.41.97-2.12,2.31-2.12,4.03,0,1.93.96,3.39,2.89,4.39,1.93,1,4.93,2.02,8.99,3.05,4.13,1.03,7.55,2.1,10.23,3.2,2.69,1.1,5.01,2.81,6.98,5.12,1.96,2.31,2.98,5.36,3.05,9.15,0,3.31-.91,6.27-2.74,8.89-1.83,2.62-4.44,4.67-7.86,6.15s-7.39,2.22-11.94,2.22-8.89-.84-12.61-2.53Z"/>
      <path class="cls-13" d="m2674.3,3557.53c3.27-1.76,7.01-2.64,11.21-2.64,4.89,0,9.32,1.21,13.28,3.62,3.96,2.41,7.1,5.84,9.41,10.28,2.31,4.44,3.46,9.6,3.46,15.45s-1.15,11.04-3.46,15.56c-2.31,4.51-5.44,8.01-9.41,10.49-3.96,2.48-8.39,3.72-13.28,3.72-4.2,0-7.91-.86-11.11-2.58-3.2-1.72-5.81-3.89-7.8-6.51v35.45h-14.47v-84.55h14.47v8.27c1.86-2.62,4.43-4.81,7.7-6.56Zm20.47,17.78c-1.41-2.51-3.27-4.43-5.58-5.74-2.31-1.31-4.81-1.96-7.49-1.96s-5.08.67-7.39,2.02c-2.31,1.34-4.17,3.29-5.58,5.84-1.41,2.55-2.12,5.55-2.12,8.99s.71,6.44,2.12,8.99c1.41,2.55,3.27,4.5,5.58,5.84,2.31,1.34,4.77,2.02,7.39,2.02s5.18-.69,7.49-2.07c2.31-1.38,4.17-3.34,5.58-5.89,1.41-2.55,2.12-5.58,2.12-9.1s-.71-6.42-2.12-8.94Z"/>
      <path class="cls-13" d="m2775.02,3588.79h-41.86c.34,4.13,1.79,7.37,4.34,9.72,2.55,2.34,5.68,3.51,9.41,3.51,5.37,0,9.2-2.31,11.47-6.92h15.61c-1.65,5.51-4.82,10.04-9.51,13.59-4.69,3.55-10.44,5.32-17.26,5.32-5.51,0-10.46-1.22-14.83-3.67-4.38-2.44-7.79-5.91-10.23-10.39-2.45-4.48-3.67-9.65-3.67-15.5s1.2-11.13,3.62-15.61c2.41-4.48,5.79-7.92,10.13-10.34,4.34-2.41,9.34-3.62,14.99-3.62s10.32,1.17,14.62,3.51c4.31,2.34,7.65,5.67,10.03,9.97,2.38,4.31,3.57,9.25,3.57,14.83,0,2.07-.14,3.93-.41,5.58Zm-14.57-9.72c-.07-3.72-1.41-6.7-4.03-8.94-2.62-2.24-5.82-3.36-9.61-3.36-3.58,0-6.6,1.09-9.04,3.26-2.45,2.17-3.94,5.19-4.5,9.04h27.18Z"/>
      <path class="cls-13" d="m2785.87,3568.89c2.41-4.44,5.75-7.89,10.03-10.34,4.27-2.45,9.16-3.67,14.68-3.67,7.1,0,12.97,1.77,17.62,5.32,4.65,3.55,7.77,8.53,9.35,14.94h-15.61c-.83-2.48-2.22-4.43-4.19-5.84-1.96-1.41-4.39-2.12-7.29-2.12-4.13,0-7.41,1.5-9.82,4.5-2.41,3-3.62,7.25-3.62,12.76s1.2,9.66,3.62,12.66c2.41,3,5.68,4.5,9.82,4.5,5.86,0,9.68-2.62,11.47-7.86h15.61c-1.59,6.2-4.72,11.13-9.41,14.78-4.69,3.65-10.54,5.48-17.57,5.48-5.51,0-10.4-1.22-14.68-3.67-4.27-2.44-7.61-5.89-10.03-10.34-2.41-4.44-3.62-9.63-3.62-15.56s1.2-11.11,3.62-15.55Z"/>
      <path class="cls-13" d="m2865.04,3567.71v27.7c0,1.93.47,3.33,1.4,4.19.93.86,2.5,1.29,4.7,1.29h6.72v12.2h-9.1c-12.2,0-18.29-5.93-18.29-17.78v-27.6h-6.82v-11.89h6.82v-14.16h14.57v14.16h12.82v11.89h-12.82Z"/>
      <path class="cls-13" d="m2927.16,3540.94v44.65c0,4.89,1.27,8.63,3.82,11.21,2.55,2.58,6.13,3.88,10.75,3.88s8.3-1.29,10.85-3.88c2.55-2.58,3.82-6.32,3.82-11.21v-44.65h14.57v44.55c0,6.13-1.33,11.32-3.98,15.56-2.65,4.24-6.2,7.43-10.65,9.56-4.44,2.14-9.39,3.2-14.83,3.2s-10.25-1.07-14.62-3.2c-4.38-2.14-7.84-5.32-10.39-9.56-2.55-4.24-3.82-9.42-3.82-15.56v-44.55h14.47Z"/>
      <path class="cls-13" d="m2999.4,3540.94v72.14h-14.47v-72.14h14.47Z"/>
    </g>
    <g>
      <g>
        <polygon class="cls-13" points="2492.42 3665.37 2481.71 3665.37 2481.71 3663.42 2490.48 3663.42 2490.48 3654.65 2492.42 3654.65 2492.42 3665.37"/>
        <polygon class="cls-13" points="2353.14 3665.37 2342.42 3665.37 2342.42 3654.65 2344.37 3654.65 2344.37 3663.42 2353.14 3663.42 2353.14 3665.37"/>
        <polygon class="cls-13" points="2344.37 3526.08 2342.42 3526.08 2342.42 3515.37 2353.14 3515.37 2353.14 3517.31 2344.37 3517.31 2344.37 3526.08"/>
        <polygon class="cls-13" points="2492.42 3526.08 2490.48 3526.08 2490.48 3517.31 2481.71 3517.31 2481.71 3515.37 2492.42 3515.37 2492.42 3526.08"/>
      </g>
      <g>
        <g>
          <polygon class="cls-13" points="2464.85 3586.83 2462.41 3589.26 2457.76 3593.92 2452.39 3599.28 2450.67 3601.01 2443.58 3608.1 2442.36 3609.31 2436.49 3615.19 2432.34 3619.33 2422.31 3629.36 2379.78 3629.36 2386.87 3622.27 2389.8 3619.33 2393.96 3615.19 2399.83 3609.31 2401.05 3608.1 2408.14 3601.01 2409.86 3599.28 2415.22 3593.92 2419.88 3589.26 2429.91 3579.23 2436.49 3572.65 2429.4 3565.56 2408.13 3586.83 2405.7 3589.26 2401.05 3593.92 2395.68 3599.28 2393.96 3601.01 2386.87 3608.1 2385.65 3609.31 2379.78 3615.18 2375.62 3619.33 2365.6 3629.36 2351.42 3629.36 2372.69 3608.09 2379.78 3601.01 2381.5 3599.28 2386.87 3593.92 2391.52 3589.26 2393.96 3586.83 2401.04 3579.74 2429.4 3551.38 2450.67 3572.65 2443.58 3579.74 2422.31 3601.01 2415.23 3608.1 2414.01 3609.31 2408.14 3615.19 2403.98 3619.33 2418.16 3619.33 2428.18 3609.31 2429.4 3608.1 2436.49 3601.01 2438.21 3599.28 2443.58 3593.92 2448.23 3589.26 2450.67 3586.83 2457.76 3579.74 2464.85 3586.83"/>
          <polygon class="cls-13" points="2479.03 3629.36 2436.49 3629.36 2443.58 3622.27 2446.52 3619.33 2450.67 3615.18 2456.55 3609.31 2457.76 3608.09 2458.98 3609.31 2464.85 3615.18 2469 3619.33 2479.03 3629.36"/>
        </g>
        <circle class="cls-13" cx="2475.32" cy="3611.67" r="7.8"/>
      </g>
    </g>
  </g>
  <rect class="cls-13" x="2194.91" y="3823.37" width="952" height="392"/>
  <rect class="cls-2" x="3551.91" y="3394.37" width="952" height="392"/>
  <rect class="cls-13" x="3551.91" y="3823.37" width="952" height="392"/>
  <g>
    <g>
      <path class="cls-2" d="m2566.03,4028.33h-28.73l-4.75,13.75h-15.19l25.94-72.25h16.85l25.94,72.25h-15.3l-4.75-13.75Zm-3.93-11.58l-10.44-30.18-10.44,30.18h20.88Z"/>
      <path class="cls-2" d="m2605.1,4040.48c-3.72-1.69-6.67-3.98-8.84-6.87-2.17-2.89-3.36-6.1-3.57-9.61h14.57c.27,2.21,1.36,4.03,3.26,5.48,1.89,1.45,4.25,2.17,7.08,2.17s4.91-.55,6.46-1.65c1.55-1.1,2.33-2.51,2.33-4.24,0-1.86-.95-3.26-2.84-4.19-1.9-.93-4.91-1.95-9.04-3.05-4.27-1.03-7.77-2.1-10.49-3.2-2.72-1.1-5.06-2.79-7.03-5.06-1.96-2.27-2.95-5.34-2.95-9.2,0-3.17.91-6.06,2.74-8.68,1.82-2.62,4.44-4.68,7.86-6.2,3.41-1.51,7.42-2.27,12.04-2.27,6.82,0,12.26,1.71,16.33,5.12,4.06,3.41,6.3,8.01,6.72,13.8h-13.85c-.21-2.27-1.15-4.08-2.84-5.43-1.69-1.34-3.95-2.02-6.77-2.02-2.62,0-4.64.48-6.05,1.45-1.41.97-2.12,2.31-2.12,4.03,0,1.93.96,3.39,2.89,4.39,1.93,1,4.93,2.02,8.99,3.05,4.13,1.03,7.55,2.1,10.23,3.2,2.69,1.1,5.01,2.81,6.98,5.12,1.96,2.31,2.98,5.36,3.05,9.15,0,3.31-.91,6.27-2.74,8.89-1.83,2.62-4.44,4.67-7.86,6.15s-7.39,2.22-11.94,2.22-8.89-.84-12.61-2.53Z"/>
      <path class="cls-2" d="m2674.3,3986.53c3.27-1.76,7.01-2.64,11.21-2.64,4.89,0,9.32,1.21,13.28,3.62,3.96,2.41,7.1,5.84,9.41,10.28,2.31,4.44,3.46,9.6,3.46,15.45s-1.15,11.04-3.46,15.56c-2.31,4.51-5.44,8.01-9.41,10.49-3.96,2.48-8.39,3.72-13.28,3.72-4.2,0-7.91-.86-11.11-2.58-3.2-1.72-5.81-3.89-7.8-6.51v35.45h-14.47v-84.55h14.47v8.27c1.86-2.62,4.43-4.81,7.7-6.56Zm20.47,17.78c-1.41-2.51-3.27-4.43-5.58-5.74-2.31-1.31-4.81-1.96-7.49-1.96s-5.08.67-7.39,2.02c-2.31,1.34-4.17,3.29-5.58,5.84-1.41,2.55-2.12,5.55-2.12,8.99s.71,6.44,2.12,8.99c1.41,2.55,3.27,4.5,5.58,5.84,2.31,1.34,4.77,2.02,7.39,2.02s5.18-.69,7.49-2.07c2.31-1.38,4.17-3.34,5.58-5.89,1.41-2.55,2.12-5.58,2.12-9.1s-.71-6.42-2.12-8.94Z"/>
      <path class="cls-2" d="m2775.02,4017.79h-41.86c.34,4.13,1.79,7.37,4.34,9.72,2.55,2.34,5.68,3.51,9.41,3.51,5.37,0,9.2-2.31,11.47-6.92h15.61c-1.65,5.51-4.82,10.04-9.51,13.59-4.69,3.55-10.44,5.32-17.26,5.32-5.51,0-10.46-1.22-14.83-3.67-4.38-2.44-7.79-5.91-10.23-10.39-2.45-4.48-3.67-9.65-3.67-15.5s1.2-11.13,3.62-15.61c2.41-4.48,5.79-7.92,10.13-10.34,4.34-2.41,9.34-3.62,14.99-3.62s10.32,1.17,14.62,3.51c4.31,2.34,7.65,5.67,10.03,9.97,2.38,4.31,3.57,9.25,3.57,14.83,0,2.07-.14,3.93-.41,5.58Zm-14.57-9.72c-.07-3.72-1.41-6.7-4.03-8.94-2.62-2.24-5.82-3.36-9.61-3.36-3.58,0-6.6,1.09-9.04,3.26-2.45,2.17-3.94,5.19-4.5,9.04h27.18Z"/>
      <path class="cls-2" d="m2785.87,3997.89c2.41-4.44,5.75-7.89,10.03-10.34,4.27-2.45,9.16-3.67,14.68-3.67,7.1,0,12.97,1.77,17.62,5.32,4.65,3.55,7.77,8.53,9.35,14.94h-15.61c-.83-2.48-2.22-4.43-4.19-5.84-1.96-1.41-4.39-2.12-7.29-2.12-4.13,0-7.41,1.5-9.82,4.5-2.41,3-3.62,7.25-3.62,12.76s1.2,9.66,3.62,12.66c2.41,3,5.68,4.5,9.82,4.5,5.86,0,9.68-2.62,11.47-7.86h15.61c-1.59,6.2-4.72,11.13-9.41,14.78-4.69,3.65-10.54,5.48-17.57,5.48-5.51,0-10.4-1.22-14.68-3.67-4.27-2.44-7.61-5.89-10.03-10.34-2.41-4.44-3.62-9.63-3.62-15.56s1.2-11.11,3.62-15.55Z"/>
      <path class="cls-2" d="m2865.04,3996.71v27.7c0,1.93.47,3.33,1.4,4.19.93.86,2.5,1.29,4.7,1.29h6.72v12.2h-9.1c-12.2,0-18.29-5.93-18.29-17.78v-27.6h-6.82v-11.89h6.82v-14.16h14.57v14.16h12.82v11.89h-12.82Z"/>
      <path class="cls-2" d="m2927.16,3969.94v44.65c0,4.89,1.27,8.63,3.82,11.21,2.55,2.58,6.13,3.88,10.75,3.88s8.3-1.29,10.85-3.88c2.55-2.58,3.82-6.32,3.82-11.21v-44.65h14.57v44.55c0,6.13-1.33,11.32-3.98,15.56-2.65,4.24-6.2,7.43-10.65,9.56-4.44,2.14-9.39,3.2-14.83,3.2s-10.25-1.07-14.62-3.2c-4.38-2.14-7.84-5.32-10.39-9.56-2.55-4.24-3.82-9.42-3.82-15.56v-44.55h14.47Z"/>
      <path class="cls-2" d="m2999.4,3969.94v72.14h-14.47v-72.14h14.47Z"/>
    </g>
    <g>
      <g>
        <polygon class="cls-2" points="2492.42 4094.37 2481.71 4094.37 2481.71 4092.42 2490.48 4092.42 2490.48 4083.65 2492.42 4083.65 2492.42 4094.37"/>
        <polygon class="cls-2" points="2353.14 4094.37 2342.42 4094.37 2342.42 4083.65 2344.37 4083.65 2344.37 4092.42 2353.14 4092.42 2353.14 4094.37"/>
        <polygon class="cls-2" points="2344.37 3955.08 2342.42 3955.08 2342.42 3944.37 2353.14 3944.37 2353.14 3946.31 2344.37 3946.31 2344.37 3955.08"/>
        <polygon class="cls-2" points="2492.42 3955.08 2490.48 3955.08 2490.48 3946.31 2481.71 3946.31 2481.71 3944.37 2492.42 3944.37 2492.42 3955.08"/>
      </g>
      <g>
        <g>
          <polygon class="cls-2" points="2464.85 4015.83 2462.41 4018.26 2457.76 4022.92 2452.39 4028.28 2450.67 4030.01 2443.58 4037.1 2442.36 4038.31 2436.49 4044.19 2432.34 4048.33 2422.31 4058.36 2379.78 4058.36 2386.87 4051.27 2389.8 4048.33 2393.96 4044.19 2399.83 4038.31 2401.05 4037.1 2408.14 4030.01 2409.86 4028.28 2415.22 4022.92 2419.88 4018.26 2429.91 4008.23 2436.49 4001.65 2429.4 3994.56 2408.13 4015.83 2405.7 4018.26 2401.05 4022.92 2395.68 4028.28 2393.96 4030.01 2386.87 4037.1 2385.65 4038.31 2379.78 4044.18 2375.62 4048.33 2365.6 4058.36 2351.42 4058.36 2372.69 4037.09 2379.78 4030.01 2381.5 4028.28 2386.87 4022.92 2391.52 4018.26 2393.96 4015.83 2401.04 4008.74 2429.4 3980.38 2450.67 4001.65 2443.58 4008.74 2422.31 4030.01 2415.23 4037.1 2414.01 4038.31 2408.14 4044.19 2403.98 4048.33 2418.16 4048.33 2428.18 4038.31 2429.4 4037.1 2436.49 4030.01 2438.21 4028.28 2443.58 4022.92 2448.23 4018.26 2450.67 4015.83 2457.76 4008.74 2464.85 4015.83"/>
          <polygon class="cls-2" points="2479.03 4058.36 2436.49 4058.36 2443.58 4051.27 2446.52 4048.33 2450.67 4044.18 2456.55 4038.31 2457.76 4037.09 2458.98 4038.31 2464.85 4044.18 2469 4048.33 2479.03 4058.36"/>
        </g>
        <circle class="cls-2" cx="2475.32" cy="4040.67" r="7.8"/>
      </g>
    </g>
  </g>
  <g>
    <g>
      <polygon class="cls-2" points="3466.41 1728.87 3448.56 1728.87 3448.56 1725.62 3463.17 1725.62 3463.17 1711.01 3466.41 1711.01 3466.41 1728.87"/>
      <polygon class="cls-2" points="3234.27 1728.87 3216.41 1728.87 3216.41 1711.01 3219.66 1711.01 3219.66 1725.62 3234.27 1725.62 3234.27 1728.87"/>
      <polygon class="cls-2" points="3219.66 1496.72 3216.41 1496.72 3216.41 1478.87 3234.27 1478.87 3234.27 1482.11 3219.66 1482.11 3219.66 1496.72"/>
      <polygon class="cls-2" points="3466.41 1496.72 3463.17 1496.72 3463.17 1482.11 3448.56 1482.11 3448.56 1478.87 3466.41 1478.87 3466.41 1496.72"/>
    </g>
    <g>
      <g>
        <polygon class="cls-3" points="3420.46 1597.96 3416.4 1602.01 3408.64 1609.78 3399.69 1618.72 3396.83 1621.59 3385.01 1633.41 3382.98 1635.43 3373.2 1645.23 3366.27 1652.14 3349.56 1668.85 3278.68 1668.85 3290.49 1657.03 3295.39 1652.14 3302.31 1645.23 3312.1 1635.43 3314.12 1633.41 3325.94 1621.59 3328.8 1618.72 3337.75 1609.78 3345.51 1602.01 3362.22 1585.3 3373.2 1574.33 3361.38 1562.51 3355.3 1568.59 3338.59 1585.3 3336.91 1585.3 3337.75 1586.15 3325.93 1597.96 3321.88 1602.01 3314.12 1609.78 3305.17 1618.72 3302.31 1621.59 3290.49 1633.41 3288.46 1635.43 3278.68 1645.22 3271.75 1652.14 3255.04 1668.85 3231.41 1668.85 3266.86 1633.4 3278.68 1621.59 3281.54 1618.72 3290.49 1609.78 3298.25 1602.01 3302.31 1597.96 3314.12 1586.15 3349.56 1550.7 3361.38 1538.88 3396.83 1574.33 3385.86 1585.3 3384.17 1585.3 3385.01 1586.15 3349.56 1621.59 3337.76 1633.41 3335.73 1635.43 3325.94 1645.23 3319.02 1652.14 3342.64 1652.14 3359.35 1635.43 3361.38 1633.41 3373.2 1621.59 3376.06 1618.72 3385.01 1609.78 3392.77 1602.01 3396.83 1597.96 3408.64 1586.15 3420.46 1597.96"/>
        <polygon class="cls-3" points="3444.08 1668.85 3373.2 1668.85 3385.01 1657.04 3389.91 1652.14 3396.83 1645.23 3406.62 1635.43 3408.64 1633.41 3410.67 1635.43 3420.45 1645.22 3427.37 1652.14 3444.08 1668.85"/>
      </g>
      <circle class="cls-2" cx="3437.91" cy="1639.37" r="13"/>
    </g>
  </g>
  <g>
    <g>
      <path class="cls-13" d="m3938.56,3599.19h-28.83l-4.77,13.8h-15.25l26.03-72.5h16.91l26.03,72.5h-15.35l-4.77-13.8Zm-3.94-11.62l-10.48-30.29-10.48,30.29h20.95Z"/>
      <path class="cls-13" d="m3971,3611.38c-3.73-1.69-6.69-3.99-8.87-6.9-2.18-2.91-3.37-6.12-3.58-9.65h14.62c.28,2.21,1.36,4.04,3.27,5.5,1.9,1.45,4.27,2.18,7.1,2.18s4.93-.55,6.48-1.66c1.56-1.1,2.33-2.52,2.33-4.25,0-1.87-.95-3.27-2.85-4.2-1.9-.93-4.93-1.95-9.08-3.06-4.29-1.04-7.8-2.11-10.53-3.21-2.73-1.11-5.08-2.8-7.05-5.08-1.97-2.28-2.96-5.36-2.96-9.23,0-3.18.92-6.08,2.75-8.71,1.83-2.63,4.46-4.7,7.88-6.22s7.45-2.28,12.08-2.28c6.85,0,12.31,1.71,16.39,5.13,4.08,3.42,6.33,8.04,6.74,13.85h-13.9c-.21-2.28-1.16-4.1-2.85-5.44-1.69-1.35-3.96-2.02-6.79-2.02-2.63,0-4.65.48-6.07,1.45-1.42.97-2.13,2.32-2.13,4.04,0,1.94.97,3.41,2.9,4.41,1.93,1,4.94,2.02,9.02,3.06,4.15,1.04,7.57,2.11,10.27,3.21,2.7,1.11,5.03,2.82,7,5.13,1.97,2.32,2.99,5.38,3.06,9.18,0,3.32-.92,6.29-2.75,8.92-1.83,2.63-4.46,4.69-7.88,6.17-3.42,1.49-7.42,2.23-11.98,2.23s-8.92-.85-12.65-2.54Z"/>
      <path class="cls-13" d="m4035.69,3557.24c3.28-1.76,7.03-2.65,11.25-2.65,4.91,0,9.35,1.21,13.33,3.63,3.98,2.42,7.12,5.86,9.44,10.32s3.48,9.63,3.48,15.51-1.16,11.08-3.48,15.61c-2.32,4.53-5.46,8.04-9.44,10.53-3.98,2.49-8.42,3.73-13.33,3.73-4.22,0-7.93-.87-11.15-2.59-3.22-1.73-5.83-3.91-7.83-6.53v35.57h-14.52v-84.84h14.52v8.3c1.87-2.63,4.44-4.82,7.73-6.59Zm20.54,17.84c-1.42-2.52-3.29-4.44-5.6-5.76-2.32-1.31-4.82-1.97-7.52-1.97s-5.1.67-7.42,2.02c-2.32,1.35-4.18,3.3-5.6,5.86-1.42,2.56-2.13,5.57-2.13,9.02s.71,6.47,2.13,9.02c1.42,2.56,3.28,4.51,5.6,5.86,2.32,1.35,4.79,2.02,7.42,2.02s5.2-.69,7.52-2.07c2.32-1.38,4.18-3.35,5.6-5.91,1.42-2.56,2.13-5.6,2.13-9.13s-.71-6.45-2.13-8.97Z"/>
      <path class="cls-13" d="m4132.86,3588.61h-42c.35,4.15,1.8,7.4,4.36,9.75,2.56,2.35,5.7,3.53,9.44,3.53,5.39,0,9.23-2.32,11.51-6.95h15.66c-1.66,5.53-4.84,10.08-9.54,13.64-4.7,3.56-10.48,5.34-17.32,5.34-5.53,0-10.49-1.23-14.88-3.68-4.39-2.45-7.81-5.93-10.27-10.42-2.46-4.49-3.68-9.68-3.68-15.56s1.21-11.17,3.63-15.66c2.42-4.49,5.81-7.95,10.16-10.37,4.36-2.42,9.37-3.63,15.04-3.63s10.35,1.18,14.68,3.53c4.32,2.35,7.67,5.69,10.06,10.01,2.39,4.32,3.58,9.28,3.58,14.88,0,2.07-.14,3.94-.42,5.6Zm-14.62-9.75c-.07-3.73-1.42-6.72-4.04-8.97-2.63-2.25-5.84-3.37-9.65-3.37-3.6,0-6.62,1.09-9.08,3.27-2.46,2.18-3.96,5.2-4.51,9.08h27.28Z"/>
      <path class="cls-13" d="m4139.85,3568.65c2.42-4.46,5.77-7.92,10.06-10.37,4.29-2.45,9.19-3.68,14.73-3.68,7.12,0,13.02,1.78,17.68,5.34,4.67,3.56,7.79,8.56,9.39,14.99h-15.66c-.83-2.49-2.23-4.44-4.2-5.86-1.97-1.42-4.41-2.13-7.31-2.13-4.15,0-7.43,1.5-9.85,4.51-2.42,3.01-3.63,7.28-3.63,12.81s1.21,9.7,3.63,12.7c2.42,3.01,5.7,4.51,9.85,4.51,5.88,0,9.71-2.63,11.51-7.88h15.66c-1.59,6.22-4.74,11.17-9.44,14.83-4.7,3.67-10.58,5.5-17.63,5.5-5.53,0-10.44-1.23-14.73-3.68-4.29-2.45-7.64-5.91-10.06-10.37-2.42-4.46-3.63-9.66-3.63-15.61s1.21-11.15,3.63-15.61Z"/>
      <path class="cls-13" d="m4214.43,3567.45v27.8c0,1.94.47,3.34,1.4,4.2.93.87,2.51,1.3,4.72,1.3h6.74v12.24h-9.13c-12.24,0-18.36-5.95-18.36-17.84v-27.69h-6.85v-11.93h6.85v-14.21h14.62v14.21h12.86v11.93h-12.86Z"/>
      <path class="cls-13" d="m4271.57,3540.59v44.81c0,4.91,1.28,8.66,3.84,11.25,2.56,2.59,6.15,3.89,10.79,3.89s8.33-1.3,10.89-3.89c2.56-2.59,3.84-6.34,3.84-11.25v-44.81h14.62v44.7c0,6.15-1.33,11.36-3.99,15.61-2.66,4.25-6.22,7.45-10.68,9.59-4.46,2.14-9.42,3.22-14.88,3.22s-10.29-1.07-14.68-3.22c-4.39-2.14-7.87-5.34-10.42-9.59-2.56-4.25-3.84-9.45-3.84-15.61v-44.7h14.52Z"/>
      <path class="cls-13" d="m4340.69,3540.59v72.39h-14.52v-72.39h14.52Z"/>
    </g>
    <g>
      <g>
        <polygon class="cls-13" points="3865.14 3665.37 3854.42 3665.37 3854.42 3663.42 3863.19 3663.42 3863.19 3654.65 3865.14 3654.65 3865.14 3665.37"/>
        <polygon class="cls-13" points="3725.85 3665.37 3715.14 3665.37 3715.14 3654.65 3717.08 3654.65 3717.08 3663.42 3725.85 3663.42 3725.85 3665.37"/>
        <polygon class="cls-13" points="3717.08 3526.08 3715.14 3526.08 3715.14 3515.37 3725.85 3515.37 3725.85 3517.31 3717.08 3517.31 3717.08 3526.08"/>
        <polygon class="cls-13" points="3865.14 3526.08 3863.19 3526.08 3863.19 3517.31 3854.42 3517.31 3854.42 3515.37 3865.14 3515.37 3865.14 3526.08"/>
      </g>
      <g>
        <g>
          <polygon class="cls-13" points="3837.57 3586.83 3835.13 3589.26 3830.48 3593.92 3825.11 3599.28 3823.39 3601.01 3816.3 3608.1 3815.08 3609.31 3809.21 3615.19 3805.06 3619.33 3795.03 3629.36 3752.5 3629.36 3759.59 3622.27 3762.52 3619.33 3766.68 3615.19 3772.55 3609.31 3773.77 3608.1 3780.86 3601.01 3782.58 3599.28 3787.94 3593.92 3792.6 3589.26 3802.63 3579.23 3809.21 3572.65 3802.12 3565.56 3780.85 3586.83 3778.42 3589.26 3773.77 3593.92 3768.4 3599.28 3766.68 3601.01 3759.59 3608.1 3758.37 3609.31 3752.5 3615.18 3748.34 3619.33 3738.32 3629.36 3724.14 3629.36 3745.41 3608.09 3752.5 3601.01 3754.22 3599.28 3759.59 3593.92 3764.24 3589.26 3766.68 3586.83 3773.76 3579.74 3802.12 3551.38 3823.39 3572.65 3816.3 3579.74 3795.03 3601.01 3787.95 3608.1 3786.73 3609.31 3780.86 3615.19 3776.7 3619.33 3790.88 3619.33 3800.9 3609.31 3802.12 3608.1 3809.21 3601.01 3810.93 3599.28 3816.3 3593.92 3820.95 3589.26 3823.39 3586.83 3830.48 3579.74 3837.57 3586.83"/>
          <polygon class="cls-13" points="3851.74 3629.36 3809.21 3629.36 3816.3 3622.27 3819.23 3619.33 3823.39 3615.18 3829.26 3609.31 3830.48 3608.09 3831.69 3609.31 3837.56 3615.18 3841.71 3619.33 3851.74 3629.36"/>
        </g>
        <circle class="cls-13" cx="3848.04" cy="3611.67" r="7.8"/>
      </g>
    </g>
  </g>
  <g>
    <g>
      <path class="cls-2" d="m3938.56,4028.19h-28.83l-4.77,13.8h-15.25l26.03-72.5h16.91l26.03,72.5h-15.35l-4.77-13.8Zm-3.94-11.62l-10.48-30.29-10.48,30.29h20.95Z"/>
      <path class="cls-2" d="m3971,4040.38c-3.73-1.69-6.69-3.99-8.87-6.9-2.18-2.91-3.37-6.12-3.58-9.65h14.62c.28,2.21,1.36,4.04,3.27,5.5,1.9,1.45,4.27,2.18,7.1,2.18s4.93-.55,6.48-1.66c1.56-1.1,2.33-2.52,2.33-4.25,0-1.87-.95-3.27-2.85-4.2-1.9-.93-4.93-1.95-9.08-3.06-4.29-1.04-7.8-2.11-10.53-3.21-2.73-1.11-5.08-2.8-7.05-5.08-1.97-2.28-2.96-5.36-2.96-9.23,0-3.18.92-6.08,2.75-8.71,1.83-2.63,4.46-4.7,7.88-6.22s7.45-2.28,12.08-2.28c6.85,0,12.31,1.71,16.39,5.13,4.08,3.42,6.33,8.04,6.74,13.85h-13.9c-.21-2.28-1.16-4.1-2.85-5.44-1.69-1.35-3.96-2.02-6.79-2.02-2.63,0-4.65.48-6.07,1.45-1.42.97-2.13,2.32-2.13,4.04,0,1.94.97,3.41,2.9,4.41,1.93,1,4.94,2.02,9.02,3.06,4.15,1.04,7.57,2.11,10.27,3.21,2.7,1.11,5.03,2.82,7,5.13,1.97,2.32,2.99,5.38,3.06,9.18,0,3.32-.92,6.29-2.75,8.92-1.83,2.63-4.46,4.69-7.88,6.17-3.42,1.49-7.42,2.23-11.98,2.23s-8.92-.85-12.65-2.54Z"/>
      <path class="cls-2" d="m4035.69,3986.24c3.28-1.76,7.03-2.65,11.25-2.65,4.91,0,9.35,1.21,13.33,3.63,3.98,2.42,7.12,5.86,9.44,10.32s3.48,9.63,3.48,15.51-1.16,11.08-3.48,15.61c-2.32,4.53-5.46,8.04-9.44,10.53-3.98,2.49-8.42,3.73-13.33,3.73-4.22,0-7.93-.87-11.15-2.59-3.22-1.73-5.83-3.91-7.83-6.53v35.57h-14.52v-84.84h14.52v8.3c1.87-2.63,4.44-4.82,7.73-6.59Zm20.54,17.84c-1.42-2.52-3.29-4.44-5.6-5.76-2.32-1.31-4.82-1.97-7.52-1.97s-5.1.67-7.42,2.02c-2.32,1.35-4.18,3.3-5.6,5.86-1.42,2.56-2.13,5.57-2.13,9.02s.71,6.47,2.13,9.02c1.42,2.56,3.28,4.51,5.6,5.86,2.32,1.35,4.79,2.02,7.42,2.02s5.2-.69,7.52-2.07c2.32-1.38,4.18-3.35,5.6-5.91,1.42-2.56,2.13-5.6,2.13-9.13s-.71-6.45-2.13-8.97Z"/>
      <path class="cls-2" d="m4132.86,4017.61h-42c.35,4.15,1.8,7.4,4.36,9.75,2.56,2.35,5.7,3.53,9.44,3.53,5.39,0,9.23-2.32,11.51-6.95h15.66c-1.66,5.53-4.84,10.08-9.54,13.64-4.7,3.56-10.48,5.34-17.32,5.34-5.53,0-10.49-1.23-14.88-3.68-4.39-2.45-7.81-5.93-10.27-10.42-2.46-4.49-3.68-9.68-3.68-15.56s1.21-11.17,3.63-15.66c2.42-4.49,5.81-7.95,10.16-10.37,4.36-2.42,9.37-3.63,15.04-3.63s10.35,1.18,14.68,3.53c4.32,2.35,7.67,5.69,10.06,10.01,2.39,4.32,3.58,9.28,3.58,14.88,0,2.07-.14,3.94-.42,5.6Zm-14.62-9.75c-.07-3.73-1.42-6.72-4.04-8.97-2.63-2.25-5.84-3.37-9.65-3.37-3.6,0-6.62,1.09-9.08,3.27-2.46,2.18-3.96,5.2-4.51,9.08h27.28Z"/>
      <path class="cls-2" d="m4139.85,3997.65c2.42-4.46,5.77-7.92,10.06-10.37,4.29-2.45,9.19-3.68,14.73-3.68,7.12,0,13.02,1.78,17.68,5.34,4.67,3.56,7.79,8.56,9.39,14.99h-15.66c-.83-2.49-2.23-4.44-4.2-5.86-1.97-1.42-4.41-2.13-7.31-2.13-4.15,0-7.43,1.5-9.85,4.51-2.42,3.01-3.63,7.28-3.63,12.81s1.21,9.7,3.63,12.7c2.42,3.01,5.7,4.51,9.85,4.51,5.88,0,9.71-2.63,11.51-7.88h15.66c-1.59,6.22-4.74,11.17-9.44,14.83-4.7,3.67-10.58,5.5-17.63,5.5-5.53,0-10.44-1.23-14.73-3.68-4.29-2.45-7.64-5.91-10.06-10.37-2.42-4.46-3.63-9.66-3.63-15.61s1.21-11.15,3.63-15.61Z"/>
      <path class="cls-2" d="m4214.43,3996.45v27.8c0,1.94.47,3.34,1.4,4.2.93.87,2.51,1.3,4.72,1.3h6.74v12.24h-9.13c-12.24,0-18.36-5.95-18.36-17.84v-27.69h-6.85v-11.93h6.85v-14.21h14.62v14.21h12.86v11.93h-12.86Z"/>
      <path class="cls-2" d="m4271.57,3969.59v44.81c0,4.91,1.28,8.66,3.84,11.25,2.56,2.59,6.15,3.89,10.79,3.89s8.33-1.3,10.89-3.89c2.56-2.59,3.84-6.34,3.84-11.25v-44.81h14.62v44.7c0,6.15-1.33,11.36-3.99,15.61-2.66,4.25-6.22,7.45-10.68,9.59-4.46,2.14-9.42,3.22-14.88,3.22s-10.29-1.07-14.68-3.22c-4.39-2.14-7.87-5.34-10.42-9.59-2.56-4.25-3.84-9.45-3.84-15.61v-44.7h14.52Z"/>
      <path class="cls-2" d="m4340.69,3969.59v72.39h-14.52v-72.39h14.52Z"/>
    </g>
    <g>
      <g>
        <polygon class="cls-2" points="3865.14 4094.37 3854.42 4094.37 3854.42 4092.42 3863.19 4092.42 3863.19 4083.65 3865.14 4083.65 3865.14 4094.37"/>
        <polygon class="cls-2" points="3725.85 4094.37 3715.14 4094.37 3715.14 4083.65 3717.08 4083.65 3717.08 4092.42 3725.85 4092.42 3725.85 4094.37"/>
        <polygon class="cls-2" points="3717.08 3955.08 3715.14 3955.08 3715.14 3944.37 3725.85 3944.37 3725.85 3946.31 3717.08 3946.31 3717.08 3955.08"/>
        <polygon class="cls-2" points="3865.14 3955.08 3863.19 3955.08 3863.19 3946.31 3854.42 3946.31 3854.42 3944.37 3865.14 3944.37 3865.14 3955.08"/>
      </g>
      <g>
        <g>
          <polygon class="cls-2" points="3837.57 4015.83 3835.13 4018.26 3830.48 4022.92 3825.11 4028.28 3823.39 4030.01 3816.3 4037.1 3815.08 4038.31 3809.21 4044.19 3805.06 4048.33 3795.03 4058.36 3752.5 4058.36 3759.59 4051.27 3762.52 4048.33 3766.68 4044.19 3772.55 4038.31 3773.77 4037.1 3780.86 4030.01 3782.58 4028.28 3787.94 4022.92 3792.6 4018.26 3802.63 4008.23 3809.21 4001.65 3802.12 3994.56 3780.85 4015.83 3778.42 4018.26 3773.77 4022.92 3768.4 4028.28 3766.68 4030.01 3759.59 4037.1 3758.37 4038.31 3752.5 4044.18 3748.34 4048.33 3738.32 4058.36 3724.14 4058.36 3745.41 4037.09 3752.5 4030.01 3754.22 4028.28 3759.59 4022.92 3764.24 4018.26 3766.68 4015.83 3773.76 4008.74 3802.12 3980.38 3823.39 4001.65 3816.3 4008.74 3795.03 4030.01 3787.95 4037.1 3786.73 4038.31 3780.86 4044.19 3776.7 4048.33 3790.88 4048.33 3800.9 4038.31 3802.12 4037.1 3809.21 4030.01 3810.93 4028.28 3816.3 4022.92 3820.95 4018.26 3823.39 4015.83 3830.48 4008.74 3837.57 4015.83"/>
          <polygon class="cls-2" points="3851.74 4058.36 3809.21 4058.36 3816.3 4051.27 3819.23 4048.33 3823.39 4044.18 3829.26 4038.31 3830.48 4037.09 3831.69 4038.31 3837.56 4044.18 3841.71 4048.33 3851.74 4058.36"/>
        </g>
        <circle class="cls-2" cx="3848.04" cy="4040.67" r="7.8"/>
      </g>
    </g>
  </g>
  <rect class="cls-2" x="4660.91" y="3394.37" width="952" height="392"/>
  <rect class="cls-13" x="4660.91" y="3823.37" width="952" height="392"/>
  <g>
    <g>
      <path class="cls-9" d="m5047.56,3599.19h-28.83l-4.77,13.8h-15.25l26.03-72.5h16.91l26.03,72.5h-15.35l-4.77-13.8Zm-3.94-11.62l-10.48-30.29-10.48,30.29h20.95Z"/>
      <path class="cls-9" d="m5080,3611.38c-3.73-1.69-6.69-3.99-8.87-6.9-2.18-2.91-3.37-6.12-3.58-9.65h14.62c.28,2.21,1.36,4.04,3.27,5.5,1.9,1.45,4.27,2.18,7.1,2.18s4.93-.55,6.48-1.66c1.56-1.1,2.33-2.52,2.33-4.25,0-1.87-.95-3.27-2.85-4.2-1.9-.93-4.93-1.95-9.08-3.06-4.29-1.04-7.8-2.11-10.53-3.21-2.73-1.11-5.08-2.8-7.05-5.08-1.97-2.28-2.96-5.36-2.96-9.23,0-3.18.92-6.08,2.75-8.71,1.83-2.63,4.46-4.7,7.88-6.22s7.45-2.28,12.08-2.28c6.85,0,12.31,1.71,16.39,5.13,4.08,3.42,6.33,8.04,6.74,13.85h-13.9c-.21-2.28-1.16-4.1-2.85-5.44-1.69-1.35-3.96-2.02-6.79-2.02-2.63,0-4.65.48-6.07,1.45-1.42.97-2.13,2.32-2.13,4.04,0,1.94.97,3.41,2.9,4.41,1.93,1,4.94,2.02,9.02,3.06,4.15,1.04,7.57,2.11,10.27,3.21,2.7,1.11,5.03,2.82,7,5.13,1.97,2.32,2.99,5.38,3.06,9.18,0,3.32-.92,6.29-2.75,8.92-1.83,2.63-4.46,4.69-7.88,6.17-3.42,1.49-7.42,2.23-11.98,2.23s-8.92-.85-12.65-2.54Z"/>
      <path class="cls-9" d="m5144.69,3557.24c3.28-1.76,7.03-2.65,11.25-2.65,4.91,0,9.35,1.21,13.33,3.63,3.98,2.42,7.12,5.86,9.44,10.32s3.48,9.63,3.48,15.51-1.16,11.08-3.48,15.61c-2.32,4.53-5.46,8.04-9.44,10.53-3.98,2.49-8.42,3.73-13.33,3.73-4.22,0-7.93-.87-11.15-2.59-3.22-1.73-5.83-3.91-7.83-6.53v35.57h-14.52v-84.84h14.52v8.3c1.87-2.63,4.44-4.82,7.73-6.59Zm20.54,17.84c-1.42-2.52-3.29-4.44-5.6-5.76-2.32-1.31-4.82-1.97-7.52-1.97s-5.1.67-7.42,2.02c-2.32,1.35-4.18,3.3-5.6,5.86-1.42,2.56-2.13,5.57-2.13,9.02s.71,6.47,2.13,9.02c1.42,2.56,3.28,4.51,5.6,5.86,2.32,1.35,4.79,2.02,7.42,2.02s5.2-.69,7.52-2.07c2.32-1.38,4.18-3.35,5.6-5.91,1.42-2.56,2.13-5.6,2.13-9.13s-.71-6.45-2.13-8.97Z"/>
      <path class="cls-9" d="m5241.86,3588.61h-42c.35,4.15,1.8,7.4,4.36,9.75,2.56,2.35,5.7,3.53,9.44,3.53,5.39,0,9.23-2.32,11.51-6.95h15.66c-1.66,5.53-4.84,10.08-9.54,13.64-4.7,3.56-10.48,5.34-17.32,5.34-5.53,0-10.49-1.23-14.88-3.68-4.39-2.45-7.81-5.93-10.27-10.42-2.46-4.49-3.68-9.68-3.68-15.56s1.21-11.17,3.63-15.66c2.42-4.49,5.81-7.95,10.16-10.37,4.36-2.42,9.37-3.63,15.04-3.63s10.35,1.18,14.68,3.53c4.32,2.35,7.67,5.69,10.06,10.01,2.39,4.32,3.58,9.28,3.58,14.88,0,2.07-.14,3.94-.42,5.6Zm-14.62-9.75c-.07-3.73-1.42-6.72-4.04-8.97-2.63-2.25-5.84-3.37-9.65-3.37-3.6,0-6.62,1.09-9.08,3.27-2.46,2.18-3.96,5.2-4.51,9.08h27.28Z"/>
      <path class="cls-9" d="m5248.85,3568.65c2.42-4.46,5.77-7.92,10.06-10.37,4.29-2.45,9.19-3.68,14.73-3.68,7.12,0,13.02,1.78,17.68,5.34,4.67,3.56,7.79,8.56,9.39,14.99h-15.66c-.83-2.49-2.23-4.44-4.2-5.86-1.97-1.42-4.41-2.13-7.31-2.13-4.15,0-7.43,1.5-9.85,4.51-2.42,3.01-3.63,7.28-3.63,12.81s1.21,9.7,3.63,12.7c2.42,3.01,5.7,4.51,9.85,4.51,5.88,0,9.71-2.63,11.51-7.88h15.66c-1.59,6.22-4.74,11.17-9.44,14.83-4.7,3.67-10.58,5.5-17.63,5.5-5.53,0-10.44-1.23-14.73-3.68-4.29-2.45-7.64-5.91-10.06-10.37-2.42-4.46-3.63-9.66-3.63-15.61s1.21-11.15,3.63-15.61Z"/>
      <path class="cls-9" d="m5323.43,3567.45v27.8c0,1.94.47,3.34,1.4,4.2.93.87,2.51,1.3,4.72,1.3h6.74v12.24h-9.13c-12.24,0-18.36-5.95-18.36-17.84v-27.69h-6.85v-11.93h6.85v-14.21h14.62v14.21h12.86v11.93h-12.86Z"/>
      <path class="cls-9" d="m5380.57,3540.59v44.81c0,4.91,1.28,8.66,3.84,11.25,2.56,2.59,6.15,3.89,10.79,3.89s8.33-1.3,10.89-3.89c2.56-2.59,3.84-6.34,3.84-11.25v-44.81h14.62v44.7c0,6.15-1.33,11.36-3.99,15.61-2.66,4.25-6.22,7.45-10.68,9.59-4.46,2.14-9.42,3.22-14.88,3.22s-10.29-1.07-14.68-3.22c-4.39-2.14-7.87-5.34-10.42-9.59-2.56-4.25-3.84-9.45-3.84-15.61v-44.7h14.52Z"/>
      <path class="cls-9" d="m5449.69,3540.59v72.39h-14.52v-72.39h14.52Z"/>
    </g>
    <g>
      <g>
        <polygon class="cls-9" points="4974.14 3665.37 4963.42 3665.37 4963.42 3663.42 4972.19 3663.42 4972.19 3654.65 4974.14 3654.65 4974.14 3665.37"/>
        <polygon class="cls-9" points="4834.85 3665.37 4824.14 3665.37 4824.14 3654.65 4826.08 3654.65 4826.08 3663.42 4834.85 3663.42 4834.85 3665.37"/>
        <polygon class="cls-9" points="4826.08 3526.08 4824.14 3526.08 4824.14 3515.37 4834.85 3515.37 4834.85 3517.31 4826.08 3517.31 4826.08 3526.08"/>
        <polygon class="cls-9" points="4974.14 3526.08 4972.19 3526.08 4972.19 3517.31 4963.42 3517.31 4963.42 3515.37 4974.14 3515.37 4974.14 3526.08"/>
      </g>
      <g>
        <g>
          <polygon class="cls-9" points="4946.57 3586.83 4944.13 3589.26 4939.48 3593.92 4934.11 3599.28 4932.39 3601.01 4925.3 3608.1 4924.08 3609.31 4918.21 3615.19 4914.06 3619.33 4904.03 3629.36 4861.5 3629.36 4868.59 3622.27 4871.52 3619.33 4875.68 3615.19 4881.55 3609.31 4882.77 3608.1 4889.86 3601.01 4891.58 3599.28 4896.94 3593.92 4901.6 3589.26 4911.63 3579.23 4918.21 3572.65 4911.12 3565.56 4889.85 3586.83 4887.42 3589.26 4882.77 3593.92 4877.4 3599.28 4875.68 3601.01 4868.59 3608.1 4867.37 3609.31 4861.5 3615.18 4857.34 3619.33 4847.32 3629.36 4833.14 3629.36 4854.41 3608.09 4861.5 3601.01 4863.22 3599.28 4868.59 3593.92 4873.24 3589.26 4875.68 3586.83 4882.76 3579.74 4911.12 3551.38 4932.39 3572.65 4925.3 3579.74 4904.03 3601.01 4896.95 3608.1 4895.73 3609.31 4889.86 3615.19 4885.7 3619.33 4899.88 3619.33 4909.9 3609.31 4911.12 3608.1 4918.21 3601.01 4919.93 3599.28 4925.3 3593.92 4929.95 3589.26 4932.39 3586.83 4939.48 3579.74 4946.57 3586.83"/>
          <polygon class="cls-9" points="4960.74 3629.36 4918.21 3629.36 4925.3 3622.27 4928.23 3619.33 4932.39 3615.18 4938.26 3609.31 4939.48 3608.09 4940.69 3609.31 4946.56 3615.18 4950.71 3619.33 4960.74 3629.36"/>
        </g>
        <circle class="cls-9" cx="4957.04" cy="3611.67" r="7.8"/>
      </g>
    </g>
  </g>
  <g>
    <g>
      <path class="cls-9" d="m5047.56,4028.19h-28.83l-4.77,13.8h-15.25l26.03-72.5h16.91l26.03,72.5h-15.35l-4.77-13.8Zm-3.94-11.62l-10.48-30.29-10.48,30.29h20.95Z"/>
      <path class="cls-9" d="m5080,4040.38c-3.73-1.69-6.69-3.99-8.87-6.9-2.18-2.91-3.37-6.12-3.58-9.65h14.62c.28,2.21,1.36,4.04,3.27,5.5,1.9,1.45,4.27,2.18,7.1,2.18s4.93-.55,6.48-1.66c1.56-1.1,2.33-2.52,2.33-4.25,0-1.87-.95-3.27-2.85-4.2-1.9-.93-4.93-1.95-9.08-3.06-4.29-1.04-7.8-2.11-10.53-3.21-2.73-1.11-5.08-2.8-7.05-5.08-1.97-2.28-2.96-5.36-2.96-9.23,0-3.18.92-6.08,2.75-8.71,1.83-2.63,4.46-4.7,7.88-6.22s7.45-2.28,12.08-2.28c6.85,0,12.31,1.71,16.39,5.13,4.08,3.42,6.33,8.04,6.74,13.85h-13.9c-.21-2.28-1.16-4.1-2.85-5.44-1.69-1.35-3.96-2.02-6.79-2.02-2.63,0-4.65.48-6.07,1.45-1.42.97-2.13,2.32-2.13,4.04,0,1.94.97,3.41,2.9,4.41,1.93,1,4.94,2.02,9.02,3.06,4.15,1.04,7.57,2.11,10.27,3.21,2.7,1.11,5.03,2.82,7,5.13,1.97,2.32,2.99,5.38,3.06,9.18,0,3.32-.92,6.29-2.75,8.92-1.83,2.63-4.46,4.69-7.88,6.17-3.42,1.49-7.42,2.23-11.98,2.23s-8.92-.85-12.65-2.54Z"/>
      <path class="cls-9" d="m5144.69,3986.24c3.28-1.76,7.03-2.65,11.25-2.65,4.91,0,9.35,1.21,13.33,3.63,3.98,2.42,7.12,5.86,9.44,10.32s3.48,9.63,3.48,15.51-1.16,11.08-3.48,15.61c-2.32,4.53-5.46,8.04-9.44,10.53-3.98,2.49-8.42,3.73-13.33,3.73-4.22,0-7.93-.87-11.15-2.59-3.22-1.73-5.83-3.91-7.83-6.53v35.57h-14.52v-84.84h14.52v8.3c1.87-2.63,4.44-4.82,7.73-6.59Zm20.54,17.84c-1.42-2.52-3.29-4.44-5.6-5.76-2.32-1.31-4.82-1.97-7.52-1.97s-5.1.67-7.42,2.02c-2.32,1.35-4.18,3.3-5.6,5.86-1.42,2.56-2.13,5.57-2.13,9.02s.71,6.47,2.13,9.02c1.42,2.56,3.28,4.51,5.6,5.86,2.32,1.35,4.79,2.02,7.42,2.02s5.2-.69,7.52-2.07c2.32-1.38,4.18-3.35,5.6-5.91,1.42-2.56,2.13-5.6,2.13-9.13s-.71-6.45-2.13-8.97Z"/>
      <path class="cls-9" d="m5241.86,4017.61h-42c.35,4.15,1.8,7.4,4.36,9.75,2.56,2.35,5.7,3.53,9.44,3.53,5.39,0,9.23-2.32,11.51-6.95h15.66c-1.66,5.53-4.84,10.08-9.54,13.64-4.7,3.56-10.48,5.34-17.32,5.34-5.53,0-10.49-1.23-14.88-3.68-4.39-2.45-7.81-5.93-10.27-10.42-2.46-4.49-3.68-9.68-3.68-15.56s1.21-11.17,3.63-15.66c2.42-4.49,5.81-7.95,10.16-10.37,4.36-2.42,9.37-3.63,15.04-3.63s10.35,1.18,14.68,3.53c4.32,2.35,7.67,5.69,10.06,10.01,2.39,4.32,3.58,9.28,3.58,14.88,0,2.07-.14,3.94-.42,5.6Zm-14.62-9.75c-.07-3.73-1.42-6.72-4.04-8.97-2.63-2.25-5.84-3.37-9.65-3.37-3.6,0-6.62,1.09-9.08,3.27-2.46,2.18-3.96,5.2-4.51,9.08h27.28Z"/>
      <path class="cls-9" d="m5248.85,3997.65c2.42-4.46,5.77-7.92,10.06-10.37,4.29-2.45,9.19-3.68,14.73-3.68,7.12,0,13.02,1.78,17.68,5.34,4.67,3.56,7.79,8.56,9.39,14.99h-15.66c-.83-2.49-2.23-4.44-4.2-5.86-1.97-1.42-4.41-2.13-7.31-2.13-4.15,0-7.43,1.5-9.85,4.51-2.42,3.01-3.63,7.28-3.63,12.81s1.21,9.7,3.63,12.7c2.42,3.01,5.7,4.51,9.85,4.51,5.88,0,9.71-2.63,11.51-7.88h15.66c-1.59,6.22-4.74,11.17-9.44,14.83-4.7,3.67-10.58,5.5-17.63,5.5-5.53,0-10.44-1.23-14.73-3.68-4.29-2.45-7.64-5.91-10.06-10.37-2.42-4.46-3.63-9.66-3.63-15.61s1.21-11.15,3.63-15.61Z"/>
      <path class="cls-9" d="m5323.43,3996.45v27.8c0,1.94.47,3.34,1.4,4.2.93.87,2.51,1.3,4.72,1.3h6.74v12.24h-9.13c-12.24,0-18.36-5.95-18.36-17.84v-27.69h-6.85v-11.93h6.85v-14.21h14.62v14.21h12.86v11.93h-12.86Z"/>
      <path class="cls-9" d="m5380.57,3969.59v44.81c0,4.91,1.28,8.66,3.84,11.25,2.56,2.59,6.15,3.89,10.79,3.89s8.33-1.3,10.89-3.89c2.56-2.59,3.84-6.34,3.84-11.25v-44.81h14.62v44.7c0,6.15-1.33,11.36-3.99,15.61-2.66,4.25-6.22,7.45-10.68,9.59-4.46,2.14-9.42,3.22-14.88,3.22s-10.29-1.07-14.68-3.22c-4.39-2.14-7.87-5.34-10.42-9.59-2.56-4.25-3.84-9.45-3.84-15.61v-44.7h14.52Z"/>
      <path class="cls-9" d="m5449.69,3969.59v72.39h-14.52v-72.39h14.52Z"/>
    </g>
    <g>
      <g>
        <polygon class="cls-9" points="4974.14 4094.37 4963.42 4094.37 4963.42 4092.42 4972.19 4092.42 4972.19 4083.65 4974.14 4083.65 4974.14 4094.37"/>
        <polygon class="cls-9" points="4834.85 4094.37 4824.14 4094.37 4824.14 4083.65 4826.08 4083.65 4826.08 4092.42 4834.85 4092.42 4834.85 4094.37"/>
        <polygon class="cls-9" points="4826.08 3955.08 4824.14 3955.08 4824.14 3944.37 4834.85 3944.37 4834.85 3946.31 4826.08 3946.31 4826.08 3955.08"/>
        <polygon class="cls-9" points="4974.14 3955.08 4972.19 3955.08 4972.19 3946.31 4963.42 3946.31 4963.42 3944.37 4974.14 3944.37 4974.14 3955.08"/>
      </g>
      <g>
        <g>
          <polygon class="cls-9" points="4946.57 4015.83 4944.13 4018.26 4939.48 4022.92 4934.11 4028.28 4932.39 4030.01 4925.3 4037.1 4924.08 4038.31 4918.21 4044.19 4914.06 4048.33 4904.03 4058.36 4861.5 4058.36 4868.59 4051.27 4871.52 4048.33 4875.68 4044.19 4881.55 4038.31 4882.77 4037.1 4889.86 4030.01 4891.58 4028.28 4896.94 4022.92 4901.6 4018.26 4911.63 4008.23 4918.21 4001.65 4911.12 3994.56 4889.85 4015.83 4887.42 4018.26 4882.77 4022.92 4877.4 4028.28 4875.68 4030.01 4868.59 4037.1 4867.37 4038.31 4861.5 4044.18 4857.34 4048.33 4847.32 4058.36 4833.14 4058.36 4854.41 4037.09 4861.5 4030.01 4863.22 4028.28 4868.59 4022.92 4873.24 4018.26 4875.68 4015.83 4882.76 4008.74 4911.12 3980.38 4932.39 4001.65 4925.3 4008.74 4904.03 4030.01 4896.95 4037.1 4895.73 4038.31 4889.86 4044.19 4885.7 4048.33 4899.88 4048.33 4909.9 4038.31 4911.12 4037.1 4918.21 4030.01 4919.93 4028.28 4925.3 4022.92 4929.95 4018.26 4932.39 4015.83 4939.48 4008.74 4946.57 4015.83"/>
          <polygon class="cls-9" points="4960.74 4058.36 4918.21 4058.36 4925.3 4051.27 4928.23 4048.33 4932.39 4044.18 4938.26 4038.31 4939.48 4037.09 4940.69 4038.31 4946.56 4044.18 4950.71 4048.33 4960.74 4058.36"/>
        </g>
        <circle class="cls-9" cx="4957.04" cy="4040.67" r="7.8"/>
      </g>
    </g>
  </g>
</svg>