<?xml version="1.0" encoding="UTF-8"?>
<svg id="Layer_2" data-name="Layer 2" xmlns="http://www.w3.org/2000/svg" viewBox="0 0 625.55 150">
  <defs>
    <style>
      .cls-1 {
        fill: #fff;
      }
    </style>
  </defs>
  <g id="Layer_1-2" data-name="Layer 1">
    <g>
      <g>
        <path class="cls-1" d="m223.42,83.82h-28.83l-4.77,13.8h-15.25l26.03-72.5h16.91l26.03,72.5h-15.35l-4.77-13.8Zm-3.94-11.62l-10.48-30.29-10.48,30.29h20.95Z"/>
        <path class="cls-1" d="m255.86,96.01c-3.73-1.69-6.69-3.99-8.87-6.9-2.18-2.91-3.37-6.12-3.58-9.65h14.62c.28,2.21,1.36,4.04,3.27,5.5,1.9,1.45,4.27,2.18,7.1,2.18s4.93-.55,6.48-1.66c1.56-1.1,2.33-2.52,2.33-4.25,0-1.87-.95-3.27-2.85-4.2-1.9-.93-4.93-1.95-9.08-3.06-4.29-1.04-7.8-2.11-10.53-3.21-2.73-1.11-5.08-2.8-7.05-5.08-1.97-2.28-2.96-5.36-2.96-9.23,0-3.18.92-6.08,2.75-8.71,1.83-2.63,4.46-4.7,7.88-6.22s7.45-2.28,12.08-2.28c6.85,0,12.31,1.71,16.39,5.13,4.08,3.42,6.33,8.04,6.74,13.85h-13.9c-.21-2.28-1.16-4.1-2.85-5.44-1.69-1.35-3.96-2.02-6.79-2.02-2.63,0-4.65.48-6.07,1.45-1.42.97-2.13,2.32-2.13,4.04,0,1.94.97,3.41,2.9,4.41,1.93,1,4.94,2.02,9.02,3.06,4.15,1.04,7.57,2.11,10.27,3.21,2.7,1.11,5.03,2.82,7,5.13,1.97,2.32,2.99,5.38,3.06,9.18,0,3.32-.92,6.29-2.75,8.92-1.83,2.63-4.46,4.69-7.88,6.17-3.42,1.49-7.42,2.23-11.98,2.23s-8.92-.85-12.65-2.54Z"/>
        <path class="cls-1" d="m320.55,41.87c3.28-1.76,7.03-2.65,11.25-2.65,4.91,0,9.35,1.21,13.33,3.63,3.98,2.42,7.12,5.86,9.44,10.32s3.48,9.63,3.48,15.51-1.16,11.08-3.48,15.61c-2.32,4.53-5.46,8.04-9.44,10.53-3.98,2.49-8.42,3.73-13.33,3.73-4.22,0-7.93-.87-11.15-2.59-3.22-1.73-5.83-3.91-7.83-6.53v35.57h-14.52V40.16h14.52v8.3c1.87-2.63,4.44-4.82,7.73-6.59Zm20.54,17.84c-1.42-2.52-3.29-4.44-5.6-5.76-2.32-1.31-4.82-1.97-7.52-1.97s-5.1.67-7.42,2.02c-2.32,1.35-4.18,3.3-5.6,5.86-1.42,2.56-2.13,5.57-2.13,9.02s.71,6.47,2.13,9.02c1.42,2.56,3.28,4.51,5.6,5.86,2.32,1.35,4.79,2.02,7.42,2.02s5.2-.69,7.52-2.07c2.32-1.38,4.18-3.35,5.6-5.91,1.42-2.56,2.13-5.6,2.13-9.13s-.71-6.45-2.13-8.97Z"/>
        <path class="cls-1" d="m417.72,73.25h-42c.35,4.15,1.8,7.4,4.36,9.75,2.56,2.35,5.7,3.53,9.44,3.53,5.39,0,9.23-2.32,11.51-6.95h15.66c-1.66,5.53-4.84,10.08-9.54,13.64-4.7,3.56-10.48,5.34-17.32,5.34-5.53,0-10.49-1.23-14.88-3.68-4.39-2.45-7.81-5.93-10.27-10.42-2.46-4.49-3.68-9.68-3.68-15.56s1.21-11.17,3.63-15.66c2.42-4.49,5.81-7.95,10.16-10.37,4.36-2.42,9.37-3.63,15.04-3.63s10.35,1.18,14.68,3.53c4.32,2.35,7.67,5.69,10.06,10.01,2.39,4.32,3.58,9.28,3.58,14.88,0,2.07-.14,3.94-.42,5.6Zm-14.62-9.75c-.07-3.73-1.42-6.72-4.04-8.97-2.63-2.25-5.84-3.37-9.65-3.37-3.6,0-6.62,1.09-9.08,3.27-2.46,2.18-3.96,5.2-4.51,9.08h27.28Z"/>
        <path class="cls-1" d="m424.71,53.28c2.42-4.46,5.77-7.92,10.06-10.37,4.29-2.45,9.19-3.68,14.73-3.68,7.12,0,13.02,1.78,17.68,5.34,4.67,3.56,7.79,8.56,9.39,14.99h-15.66c-.83-2.49-2.23-4.44-4.2-5.86-1.97-1.42-4.41-2.13-7.31-2.13-4.15,0-7.43,1.5-9.85,4.51-2.42,3.01-3.63,7.28-3.63,12.81s1.21,9.7,3.63,12.7c2.42,3.01,5.7,4.51,9.85,4.51,5.88,0,9.71-2.63,11.51-7.88h15.66c-1.59,6.22-4.74,11.17-9.44,14.83-4.7,3.67-10.58,5.5-17.63,5.5-5.53,0-10.44-1.23-14.73-3.68-4.29-2.45-7.64-5.91-10.06-10.37-2.42-4.46-3.63-9.66-3.63-15.61s1.21-11.15,3.63-15.61Z"/>
        <path class="cls-1" d="m499.29,52.09v27.8c0,1.94.47,3.34,1.4,4.2.93.87,2.51,1.3,4.72,1.3h6.74v12.24h-9.13c-12.24,0-18.36-5.95-18.36-17.84v-27.69h-6.85v-11.93h6.85v-14.21h14.62v14.21h12.86v11.93h-12.86Z"/>
        <path class="cls-1" d="m556.44,25.23v44.81c0,4.91,1.28,8.66,3.84,11.25,2.56,2.59,6.15,3.89,10.79,3.89s8.33-1.3,10.89-3.89c2.56-2.59,3.84-6.34,3.84-11.25V25.23h14.62v44.7c0,6.15-1.33,11.36-3.99,15.61-2.66,4.25-6.22,7.45-10.68,9.59-4.46,2.14-9.42,3.22-14.88,3.22s-10.29-1.07-14.68-3.22c-4.39-2.14-7.87-5.34-10.42-9.59-2.56-4.25-3.84-9.45-3.84-15.61V25.23h14.52Z"/>
        <path class="cls-1" d="m625.55,25.23v72.39h-14.52V25.23h14.52Z"/>
      </g>
      <g>
        <g>
          <polygon class="cls-1" points="150 150 139.29 150 139.29 148.05 148.05 148.05 148.05 139.29 150 139.29 150 150"/>
          <polygon class="cls-1" points="10.71 150 0 150 0 139.29 1.95 139.29 1.95 148.05 10.71 148.05 10.71 150"/>
          <polygon class="cls-1" points="1.95 10.71 0 10.71 0 0 10.71 0 10.71 1.95 1.95 1.95 1.95 10.71"/>
          <polygon class="cls-1" points="150 10.71 148.05 10.71 148.05 1.95 139.29 1.95 139.29 0 150 0 150 10.71"/>
        </g>
        <g>
          <g>
            <polygon class="cls-1" points="122.43 71.46 119.99 73.89 115.34 78.55 109.97 83.91 108.25 85.64 101.16 92.73 99.94 93.94 94.07 99.82 89.92 103.96 79.89 113.99 37.36 113.99 44.45 106.9 47.38 103.96 51.54 99.82 57.41 93.94 58.63 92.73 65.72 85.64 67.44 83.91 72.8 78.55 77.46 73.89 87.49 63.86 94.07 57.28 86.98 50.19 65.71 71.46 63.28 73.89 58.63 78.55 53.26 83.91 51.54 85.64 44.45 92.73 43.23 93.94 37.36 99.81 33.2 103.96 23.18 113.99 9 113.99 30.27 92.72 37.36 85.64 39.08 83.91 44.45 78.55 49.1 73.89 51.54 71.46 58.62 64.37 86.98 36.01 108.25 57.28 101.16 64.37 79.89 85.64 72.81 92.73 71.59 93.94 65.72 99.82 61.56 103.96 75.74 103.96 85.76 93.94 86.98 92.73 94.07 85.64 95.79 83.91 101.16 78.55 105.81 73.89 108.25 71.46 115.34 64.37 122.43 71.46"/>
            <polygon class="cls-1" points="136.6 113.99 94.07 113.99 101.16 106.91 104.1 103.96 108.25 99.82 114.12 93.94 115.34 92.73 116.55 93.94 122.42 99.81 126.58 103.96 136.6 113.99"/>
          </g>
          <circle class="cls-1" cx="132.9" cy="96.3" r="7.8"/>
        </g>
      </g>
    </g>
  </g>
</svg>